<?xml version="1.0" encoding="UTF-8" standalone="no"?>
<!-- Created with Inkscape (http://www.inkscape.org/) -->

<svg
   xmlns:dc="http://purl.org/dc/elements/1.1/"
   xmlns:cc="http://creativecommons.org/ns#"
   xmlns:rdf="http://www.w3.org/1999/02/22-rdf-syntax-ns#"
   xmlns:svg="http://www.w3.org/2000/svg"
   xmlns="http://www.w3.org/2000/svg"
   xmlns:sodipodi="http://sodipodi.sourceforge.net/DTD/sodipodi-0.dtd"
   xmlns:inkscape="http://www.inkscape.org/namespaces/inkscape"
   width="104.13245mm"
   height="104.13245mm"
   viewBox="0 0 104.13245 104.13245"
   version="1.1"
   id="svg1050"
   inkscape:version="0.92.4 (5da689c313, 2019-01-14)"
   sodipodi:docname="deringer.svg">
  <defs
     id="defs1044" />
  <sodipodi:namedview
     id="base"
     pagecolor="#ffffff"
     bordercolor="#666666"
     borderopacity="1.0"
     inkscape:pageopacity="0.0"
     inkscape:pageshadow="2"
     inkscape:zoom="0.98994949"
     inkscape:cx="-97.523019"
     inkscape:cy="239.7154"
     inkscape:document-units="mm"
     inkscape:current-layer="layer1"
     showgrid="false"
     inkscape:window-width="1920"
     inkscape:window-height="1052"
     inkscape:window-x="0"
     inkscape:window-y="1080"
     inkscape:window-maximized="1">
    <sodipodi:guide
       position="-10.48884,-189.27159"
       orientation="0,793.70079"
       id="guide1655"
       inkscape:locked="false" />
    <sodipodi:guide
       position="199.51116,-189.27159"
       orientation="-1122.5197,0"
       id="guide1657"
       inkscape:locked="false" />
    <sodipodi:guide
       position="199.51116,107.72841"
       orientation="0,-793.70079"
       id="guide1659"
       inkscape:locked="false" />
    <sodipodi:guide
       position="-10.48884,107.72841"
       orientation="1122.5197,0"
       id="guide1661"
       inkscape:locked="false" />
    <sodipodi:guide
       position="-10.48884,-189.27159"
       orientation="0,793.70079"
       id="guide1663"
       inkscape:locked="false" />
    <sodipodi:guide
       position="199.51116,-189.27159"
       orientation="-1122.5197,0"
       id="guide1665"
       inkscape:locked="false" />
    <sodipodi:guide
       position="199.51116,107.72841"
       orientation="0,-793.70079"
       id="guide1667"
       inkscape:locked="false" />
    <sodipodi:guide
       position="-10.48884,107.72841"
       orientation="1122.5197,0"
       id="guide1669"
       inkscape:locked="false" />
  </sodipodi:namedview>
  <metadata
     id="metadata1047">
    <rdf:RDF>
      <cc:Work
         rdf:about="">
        <dc:format>image/svg+xml</dc:format>
        <dc:type
           rdf:resource="http://purl.org/dc/dcmitype/StillImage" />
        <dc:title />
      </cc:Work>
    </rdf:RDF>
  </metadata>
  <g
     inkscape:label="Layer 1"
     inkscape:groupmode="layer"
     id="layer1"
     transform="translate(-10.488839,-3.5959735)">
    <path
       style="fill:none;fill-rule:evenodd;stroke:#000000;stroke-width:0.28222221px;stroke-linecap:round;stroke-linejoin:miter;stroke-opacity:1"
       d="m 61.250261,42.657736 c -7.479547,1.35118 -15.584635,2.836259 -23.436319,9.520274 -2.210789,1.530895 -1.985393,6.09934 2.399716,4.338687 8.903124,-6.040664 30.404652,2.197923 32.859323,-12.110416 M 59.751846,40.492613 C 20.991003,45.769784 8.1886251,85.117699 39.388925,79.43834 39.75241,73.747936 36.822469,67.824884 43.434584,62.493804 c 0,0 2.745109,-0.970733 3.704586,1.68932 4.233476,11.736931 25.545993,4.372778 18.376801,-5.876186 10.897837,-0.787686 22.641795,-1.906624 28.2885,-0.638407 3.551656,-1.728462 8.787589,-3.149862 7.382819,-8.042107 -1.965747,-4.754251 -5.451847,-4.374497 -8.706053,-4.777846 -6.693366,-0.11427 -12.200075,2.019844 -16.845403,0.115823 -1.288939,1.738301 -2.439134,1.903353 -3.653294,2.793835"
       id="path4727"
       inkscape:connector-curvature="0"
       sodipodi:nodetypes="cccccccccccccc" />
    <path
       style="fill:none;fill-rule:evenodd;stroke:#000000;stroke-width:0.28222221px;stroke-linecap:round;stroke-linejoin:miter;stroke-opacity:1"
       d="m 66.911444,39.848881 3.702641,-1.272909 0.774001,1.280777 h 0.893077 l 0.565622,-0.416996 2.472167,0.02615 c 0.636592,7.649698 -9.275381,6.285456 -8.407508,0.382966 z m -0.01861,-1.183559 c -2.026934,-2.791459 -3.737989,-0.213364 -2.947174,1.057396 2.269648,6.226076 0.117907,8.656324 -1.566224,10.601874 -6.211851,5.31157 -12.019152,-4.240107 -3.557488,-4.886288 3.355828,3.141421 3.45994,-3.124441 1.506733,-4.434807 -0.8267,-0.816809 -1.915531,-1.849454 -0.55074,-3.053025 -1.627028,-1.345795 -2.379786,-2.876188 -2.603762,-5.288884 0.177863,-0.472745 -0.450126,-1.258044 -0.670868,-1.68095 0.51106,0.221686 0.438096,-0.228636 1.964783,1.161637 0.595301,1.595612 0.368842,4.513901 2.113623,4.259343 2.420946,-1.161685 3.962193,-2.804007 6.906514,-2.650919 0.138148,1.549653 2.086091,1.454392 2.619706,3.335989 z m 28.935904,1.489282 v -1.042495 h 3.780713 c 0.11803,0.407431 0.37488,0.768546 1.160999,0.953132 0.93951,0.231704 2.02315,0.219586 2.32203,1.519074 -0.0193,2.879997 0.29151,6.200392 -0.50608,8.042109 h -1.3545"
       id="path4731"
       inkscape:connector-curvature="0"
       sodipodi:nodetypes="cccccccccccccscccccccccccccc" />
    <path
       sodipodi:nodetypes="ccccccccccccc"
       inkscape:connector-curvature="0"
       id="path4737"
       d="m 89.794005,52.537 c 0.429453,0.779161 0.882184,0.512172 1.331242,0.05541 1.745795,0.855126 1.891905,-0.247919 2.656934,-1.159869 -0.645952,-0.911964 -0.873931,-2.268182 -2.619726,-1.413055 -0.449058,-0.456758 -0.948246,-0.760976 -1.37769,0.01815 -0.738757,-0.550037 -1.453502,-0.717345 -2.644908,-0.646611 -1.191415,0.01278 -1.879681,0.193316 -2.618441,0.743352 -0.429443,-0.779161 -0.955111,-0.488185 -1.404174,-0.0314 -1.745794,-0.855126 -1.973769,0.501105 -2.619705,1.413055 0.765013,0.91195 0.911121,2.015008 2.656916,1.159869 0.449062,0.456758 0.961374,0.710505 1.390831,-0.06866 0.738759,0.550048 1.551998,0.596555 2.594573,0.525832 1.042566,-0.01278 1.915391,-0.04597 2.654148,-0.596078 z"
       style="fill:none;fill-rule:evenodd;stroke:#000000;stroke-width:0.28222221px;stroke-linecap:butt;stroke-linejoin:miter;stroke-opacity:1" />
    <path
       style="fill:none;fill-rule:evenodd;stroke:#000000;stroke-width:0.28222221px;stroke-linecap:round;stroke-linejoin:miter;stroke-opacity:1"
       d="m 56.554024,59.076022 7.167915,-0.675698 c 10.10337,11.54081 -19.987872,16.31548 -14.303919,2.044692 1.768898,-0.584699 3.611954,-1.544734 4.730272,1.163524 -0.09845,2.874885 0.151061,3.958612 0.312575,5.49544 -0.992965,1.018185 0.984683,1.747829 0.61028,0.238284 -0.03282,-3.188013 -0.552543,-6.750296 1.482877,-8.266242 z"
       id="path4739"
       inkscape:connector-curvature="0"
       sodipodi:nodetypes="ccccccc" />
    <path
       style="fill:none;fill-rule:evenodd;stroke:#000000;stroke-width:0.28222221px;stroke-linecap:round;stroke-linejoin:miter;stroke-opacity:1"
       d="m 64.243584,40.211178 2.520236,-0.0148"
       id="path4741"
       inkscape:connector-curvature="0" />
    <path
       sodipodi:nodetypes="ccc"
       inkscape:connector-curvature="0"
       id="path4749"
       d="m 58.742926,46.884888 c 2.26769,1.602621 0.677013,3.97029 -1.726115,3.243487 -2.133064,-1.677451 -0.573439,-4.012427 1.726115,-3.243487 z"
       style="fill:none;fill-rule:evenodd;stroke:#000000;stroke-width:0.28222221px;stroke-linecap:butt;stroke-linejoin:miter;stroke-opacity:1" />
    <path
       style="fill:none;fill-rule:evenodd;stroke:#000000;stroke-width:0.28222221px;stroke-linecap:round;stroke-linejoin:miter;stroke-opacity:1"
       d="m 58.648719,47.001439 -1.497485,3.053825"
       id="path4751"
       inkscape:connector-curvature="0"
       sodipodi:nodetypes="cc" />
    <path
       style="fill:none;fill-rule:evenodd;stroke:#000000;stroke-width:0.28222221px;stroke-linecap:butt;stroke-linejoin:miter;stroke-opacity:1"
       d="m 39.131677,53.651531 c 1.576129,1.110591 0.470556,2.751362 -1.199708,2.247702 -1.482556,-1.16246 -0.398559,-2.780568 1.199708,-2.247702 z"
       id="path4753"
       inkscape:connector-curvature="0"
       sodipodi:nodetypes="ccc" />
    <path
       inkscape:connector-curvature="0"
       id="path4755"
       d="m 39.666224,54.45517 -2.120892,0.680928"
       style="fill:none;fill-rule:evenodd;stroke:#000000;stroke-width:0.28222221px;stroke-linecap:round;stroke-linejoin:miter;stroke-opacity:1"
       sodipodi:nodetypes="cc" />
    <path
       style="fill:none;fill-rule:evenodd;stroke:#000000;stroke-width:0.28222221px;stroke-linecap:butt;stroke-linejoin:miter;stroke-opacity:1"
       d="m 43.435277,62.470448 5.957597,-2.013432"
       id="path4226"
       inkscape:connector-curvature="0"
       sodipodi:nodetypes="cc" />
    <path
       style="fill:none;fill-rule:evenodd;stroke:#000000;stroke-width:0.28222221px;stroke-linecap:round;stroke-linejoin:miter;stroke-opacity:1"
       d="m 51.830015,59.782895 4.665126,-0.70039"
       id="path4228"
       inkscape:connector-curvature="0"
       sodipodi:nodetypes="cc" />
    <path
       style="fill:none;fill-rule:evenodd;stroke:#000000;stroke-width:0.28222221px;stroke-linecap:round;stroke-linejoin:miter;stroke-opacity:1"
       d="m 63.78748,58.3998 1.791335,-0.0972"
       id="path4230"
       inkscape:connector-curvature="0"
       sodipodi:nodetypes="cc" />
    <path
       inkscape:connector-curvature="0"
       id="path4232"
       d="m 64.924022,42.658177 2.370788,0.04215"
       style="fill:none;fill-rule:evenodd;stroke:#000000;stroke-width:0.28222221px;stroke-linecap:round;stroke-linejoin:miter;stroke-opacity:1"
       sodipodi:nodetypes="cc" />
    <path
       style="fill:none;fill-rule:evenodd;stroke:#000000;stroke-width:0.28222221px;stroke-linecap:round;stroke-linejoin:miter;stroke-opacity:1"
       d="M 101.14771,40.175212 H 75.407848"
       id="path4234"
       inkscape:connector-curvature="0" />
    <path
       style="fill:none;fill-rule:evenodd;stroke:#000000;stroke-width:0.08466668;stroke-linecap:round;stroke-linejoin:miter;stroke-miterlimit:4;stroke-dasharray:none;stroke-opacity:1"
       d="M 37.886523,48.232139 C 19.666393,66.27596 20.601299,77.279485 36.142652,79.895384"
       id="path4248"
       inkscape:connector-curvature="0"
       sodipodi:nodetypes="cc" />
    <path
       style="fill:none;fill-rule:evenodd;stroke:#000000;stroke-width:0.08466668;stroke-linecap:round;stroke-linejoin:miter;stroke-miterlimit:4;stroke-dasharray:none;stroke-opacity:1"
       d="m 29.314925,58.054447 c 4.112333,1.332085 8.211217,2.720674 12.870091,1.756007 22.358588,-5.371774 30.522785,-0.854398 35.538962,-14.18995"
       id="path4250"
       inkscape:connector-curvature="0"
       sodipodi:nodetypes="ccc" />
    <path
       style="fill:none;fill-rule:evenodd;stroke:#000000;stroke-width:0.08466668;stroke-linecap:round;stroke-linejoin:miter;stroke-miterlimit:4;stroke-dasharray:none;stroke-opacity:1"
       d="M 103.05383,42.431907 H 74.884722"
       id="path4252"
       inkscape:connector-curvature="0"
       sodipodi:nodetypes="cc" />
    <path
       style="fill:none;fill-rule:evenodd;stroke:#000000;stroke-width:0.08466668;stroke-linecap:round;stroke-linejoin:miter;stroke-miterlimit:4;stroke-dasharray:none;stroke-opacity:1"
       d="m 83.162997,50.080386 v 2.530046"
       id="path4262"
       inkscape:connector-curvature="0" />
    <path
       style="fill:none;fill-rule:evenodd;stroke:#000000;stroke-width:0.08466668;stroke-linecap:round;stroke-linejoin:miter;stroke-miterlimit:4;stroke-dasharray:none;stroke-opacity:1"
       d="m 84.500138,50.159862 v 2.490309"
       id="path4264"
       inkscape:connector-curvature="0" />
    <path
       style="fill:none;fill-rule:evenodd;stroke:#000000;stroke-width:0.08466668;stroke-linecap:round;stroke-linejoin:miter;stroke-miterlimit:4;stroke-dasharray:none;stroke-opacity:1"
       d="M 89.822263,50.067145 V 52.70315"
       id="path4266"
       inkscape:connector-curvature="0" />
    <path
       style="fill:none;fill-rule:evenodd;stroke:#000000;stroke-width:0.08466668;stroke-linecap:round;stroke-linejoin:miter;stroke-miterlimit:4;stroke-dasharray:none;stroke-opacity:1"
       d="m 91.132938,50.000911 v 2.503551"
       id="path4268"
       inkscape:connector-curvature="0" />
    <path
       style="fill:none;fill-rule:evenodd;stroke:#000000;stroke-width:0.08466668;stroke-linecap:round;stroke-linejoin:round;stroke-miterlimit:4;stroke-dasharray:none;stroke-opacity:1"
       d="m 60.830091,48.483067 c 4.275782,-2.490893 1.765796,-6.87702 0.898699,-9.853603"
       id="path4307"
       inkscape:connector-curvature="0"
       sodipodi:nodetypes="cc" />
    <path
       style="fill:none;fill-rule:evenodd;stroke:#000000;stroke-width:0.08466668;stroke-linecap:round;stroke-linejoin:round;stroke-miterlimit:4;stroke-dasharray:none;stroke-opacity:1"
       d="m 67.458007,33.871261 c -0.482538,1.437354 -1.11308,1.097696 -1.685062,1.461187"
       id="path4321"
       inkscape:connector-curvature="0"
       sodipodi:nodetypes="cc" />
    <path
       style="fill:none;fill-rule:evenodd;stroke:#000000;stroke-width:0.08466668;stroke-linecap:round;stroke-linejoin:round;stroke-miterlimit:4;stroke-dasharray:none;stroke-opacity:1"
       d="m 69.629868,44.36179 c 0.125139,-1.515192 0.467811,-2.957835 2.658646,-3.784089"
       id="path4323"
       inkscape:connector-curvature="0"
       sodipodi:nodetypes="cc" />
    <path
       style="fill:none;fill-rule:evenodd;stroke:#000000;stroke-width:0.08466668;stroke-linecap:round;stroke-linejoin:round;stroke-miterlimit:4;stroke-dasharray:none;stroke-opacity:1"
       d="m 36.778218,53.563673 c 3.176365,-3.121659 5.10469,1.549139 12.161631,0.427695"
       id="path4325"
       inkscape:connector-curvature="0"
       sodipodi:nodetypes="cc" />
  </g>
</svg>
