<?xml version="1.0" encoding="UTF-8" standalone="no"?>
<!-- Created with Inkscape (http://www.inkscape.org/) -->

<svg
   xmlns:dc="http://purl.org/dc/elements/1.1/"
   xmlns:cc="http://creativecommons.org/ns#"
   xmlns:rdf="http://www.w3.org/1999/02/22-rdf-syntax-ns#"
   xmlns:svg="http://www.w3.org/2000/svg"
   xmlns="http://www.w3.org/2000/svg"
   xmlns:sodipodi="http://sodipodi.sourceforge.net/DTD/sodipodi-0.dtd"
   xmlns:inkscape="http://www.inkscape.org/namespaces/inkscape"
   width="104.13245mm"
   height="104.13245mm"
   viewBox="0 0 104.13245 104.13245"
   version="1.1"
   id="svg2361"
   inkscape:version="0.92.4 (5da689c313, 2019-01-14)"
   sodipodi:docname="lefuche.svg">
  <defs
     id="defs2355" />
  <sodipodi:namedview
     id="base"
     pagecolor="#ffffff"
     bordercolor="#666666"
     borderopacity="1.0"
     inkscape:pageopacity="0.0"
     inkscape:pageshadow="2"
     inkscape:zoom="1.4"
     inkscape:cx="35.373329"
     inkscape:cy="156.19724"
     inkscape:document-units="mm"
     inkscape:current-layer="layer1"
     showgrid="false"
     inkscape:window-width="1920"
     inkscape:window-height="1052"
     inkscape:window-x="0"
     inkscape:window-y="1080"
     inkscape:window-maximized="1" />
  <metadata
     id="metadata2358">
    <rdf:RDF>
      <cc:Work
         rdf:about="">
        <dc:format>image/svg+xml</dc:format>
        <dc:type
           rdf:resource="http://purl.org/dc/dcmitype/StillImage" />
        <dc:title></dc:title>
      </cc:Work>
    </rdf:RDF>
  </metadata>
  <g
     inkscape:label="Layer 1"
     inkscape:groupmode="layer"
     id="layer1"
     transform="translate(-52.255207,-93.743301)">
    <path
       style="fill:none;fill-rule:evenodd;stroke:#000000;stroke-width:0.28222224px;stroke-linecap:round;stroke-linejoin:round;stroke-opacity:1"
       d="m 106.75893,126.21541 45.83125,-4.72835 c 2.39,1.96665 1.52588,4.33287 1.04568,5.96651 l -0.58947,0.0928 c -0.25733,1.03304 -0.81106,1.46781 -1.50161,1.6818 l -27.11823,3.62996"
       id="path4286"
       inkscape:connector-curvature="0"
       sodipodi:nodetypes="cccccc" />
    <path
       style="fill:none;fill-rule:evenodd;stroke:#000000;stroke-width:0.28222224px;stroke-linecap:round;stroke-linejoin:round;stroke-opacity:1"
       d="m 153.02055,127.54845 -31.13612,4.08316"
       id="path4288"
       inkscape:connector-curvature="0" />
    <path
       style="fill:none;fill-rule:evenodd;stroke:#000000;stroke-width:0.28222224px;stroke-linecap:round;stroke-linejoin:round;stroke-opacity:1"
       d="m 107.53254,132.05264 c -2.71432,-0.16064 -3.20502,-2.92778 -4.05622,-5.27233 l 3.06183,-0.91838 c 1.31366,2.06131 1.90428,4.12261 1.09404,6.18392 l 1.21233,0.53257 c 5.8171,1.22612 16.56205,-5.48866 16.94303,4.49739 l -43.88035,8.25508 c -1.935702,0.49666 -3.485211,2.47266 -3.96006,3.25008 -5.086309,5.78621 -4.976396,13.16774 -3.16606,21.07134 -2.240316,0.89459 -3.963155,1.98097 -4.701466,3.43223 -2.582861,1.63418 -5.569788,2.43276 -8.988965,2.33745 -1.048162,-0.59769 -2.831485,-0.8013 -5.44069,-0.56218 -3.806083,-27.02741 9.691315,-41.06882 37.996125,-43.9975"
       id="path4291"
       inkscape:connector-curvature="0"
       sodipodi:nodetypes="ccccccccccccc" />
    <path
       style="fill:none;fill-rule:evenodd;stroke:#000000;stroke-width:0.28222224px;stroke-linecap:round;stroke-linejoin:round;stroke-opacity:1"
       d="m 95.292104,130.55269 c 3.47553,-0.20925 -1.26321,-2.19323 1.82805,-5.29968 -2.29579,-4.23115 0.2747,-5.82198 -2.13265,-8.2014 l 0.66906,-0.46029 c 3.95998,0.56436 -0.14271,11.4142 7.380666,6.15105 1.82852,-1.42482 1.98708,0.64569 3.86501,1.64392 l -0.83328,0.82487 -1.51705,0.28844 c -1.58174,-1.37465 -2.71835,-1.25059 -3.86841,1.33873 -0.23214,0.7816 -0.56499,1.26275 0.53224,3.18073 l 3.4628,-0.0168"
       id="path4293"
       inkscape:connector-curvature="0"
       sodipodi:nodetypes="ccccccccccc" />
    <path
       style="fill:none;fill-rule:evenodd;stroke:#000000;stroke-width:0.28222224px;stroke-linecap:round;stroke-linejoin:round;stroke-opacity:1"
       d="m 112.48784,139.64729 c -1.1341,0.40273 -1.26805,0.69712 -1.17087,1.1298 0.32018,1.06974 0.83392,1.95296 1.90267,2.3014 2.44625,0.82995 10.14755,-3.59857 15.22132,-5.39785 l 3.53352,-2.78262 c 0.99655,-0.57928 1.01353,-0.0276 0.94089,0.62765 -0.11288,3.43857 5.46998,3.40301 4.68347,-0.43935 -0.38781,-2.45208 -2.14216,-3.05693 -4.09805,-3.38936 -4.49835,0.42129 -5.08952,5.23975 -7.90338,3.57765"
       id="path4295"
       inkscape:connector-curvature="0"
       sodipodi:nodetypes="ccccccccc" />
    <path
       sodipodi:nodetypes="cccc"
       inkscape:connector-curvature="0"
       id="path4297"
       d="m 93.534854,130.87277 c 5.22107,-0.4275 -0.36102,-2.27975 2.57996,-5.35348 -2.29579,-4.23114 0.49311,-5.49896 -1.91424,-7.87839 l 0.7796,-0.56138"
       style="fill:none;fill-rule:evenodd;stroke:#000000;stroke-width:0.28222224px;stroke-linecap:round;stroke-linejoin:round;stroke-opacity:1" />
    <path
       style="fill:none;fill-rule:evenodd;stroke:#000000;stroke-width:0.28222224px;stroke-linecap:round;stroke-linejoin:round;stroke-opacity:1"
       d="m 95.035824,143.28932 c 0.48429,0.3638 2.52153,0.0496 1.24189,1.18352 -7.95236,5.15444 -6.36147,7.66524 -4.67189,10.14872 -1.32875,-6.83908 2.81397,-6.64382 6.35732,-9.7049 1.16575,-1.21814 0.85441,-1.3513 0.96861,-2.14854"
       id="path4301"
       inkscape:connector-curvature="0"
       sodipodi:nodetypes="ccccc" />
    <path
       style="fill:none;fill-rule:evenodd;stroke:#000000;stroke-width:0.28222224;stroke-linecap:round;stroke-linejoin:round;stroke-miterlimit:4.5999999;stroke-dasharray:none;stroke-opacity:1"
       d="m 96.012014,146.48878 c 1.26872,3.02945 2.64153,6.43078 4.704386,7.88756 -2.120506,-3.89353 -2.722246,-6.25202 -3.387166,-8.84998"
       id="path4303"
       inkscape:connector-curvature="0"
       sodipodi:nodetypes="ccc" />
    <path
       style="fill:none;fill-rule:evenodd;stroke:#000000;stroke-width:0.28222224px;stroke-linecap:round;stroke-linejoin:round;stroke-opacity:1"
       d="m 88.205392,146.29251 c 4.947532,-1.11006 4.301402,-2.33949 1.123622,-1.81967 -14.721945,20.61039 38.411766,10.36417 15.908106,-3.16593 -4.81444,0.83838 -5.688756,2.54509 -1.29842,1.91059 19.96401,14.58164 -31.320674,23.50112 -16.951432,2.42697 l 2.340106,-1.16371"
       id="path4305"
       inkscape:connector-curvature="0"
       sodipodi:nodetypes="cccccc" />
    <path
       style="fill:none;fill-rule:evenodd;stroke:#000000;stroke-width:0.28222224px;stroke-linecap:round;stroke-linejoin:round;stroke-opacity:1"
       d="m 78.033666,148.43765 c 2.494176,-1.86092 5.901818,-1.9713 8.900261,-2.72211"
       id="path4309"
       inkscape:connector-curvature="0"
       sodipodi:nodetypes="cc" />
    <path
       style="fill:none;fill-rule:evenodd;stroke:#000000;stroke-width:0.28222224px;stroke-linecap:round;stroke-linejoin:round;stroke-opacity:1"
       d="m 106.15375,141.86909 5.02672,-1.03558"
       id="path4311"
       inkscape:connector-curvature="0" />
    <path
       style="fill:none;fill-rule:evenodd;stroke:#000000;stroke-width:0.28222224px;stroke-linecap:round;stroke-linejoin:round;stroke-opacity:1"
       d="m 98.898374,143.43815 2.166686,-0.4291"
       id="path4313"
       inkscape:connector-curvature="0"
       sodipodi:nodetypes="cc" />
    <path
       style="fill:none;fill-rule:evenodd;stroke:#000000;stroke-width:0.28222224px;stroke-linecap:round;stroke-linejoin:round;stroke-opacity:1"
       d="m 91.653874,145.00173 4.95269,-0.95336"
       id="path4315"
       inkscape:connector-curvature="0"
       sodipodi:nodetypes="cc" />
    <path
       style="fill:none;fill-rule:evenodd;stroke:#000000;stroke-width:0.28222224px;stroke-linecap:round;stroke-linejoin:round;stroke-opacity:1"
       d="m 103.47632,126.78031 c -0.82901,0.8881 -2.09438,1.9415 -1.94449,2.28048 l 0.26135,0.97288"
       id="path4317"
       inkscape:connector-curvature="0"
       sodipodi:nodetypes="ccc" />
    <path
       style="fill:none;fill-rule:evenodd;stroke:#000000;stroke-width:0.28222224px;stroke-linecap:round;stroke-linejoin:round;stroke-opacity:1"
       d="m 55.649959,174.74146 c 5.884121,-2.7894 12.438754,-4.10271 19.101554,-5.17791"
       id="path4319"
       inkscape:connector-curvature="0"
       sodipodi:nodetypes="cc" />
    <path
       style="fill:none;fill-rule:evenodd;stroke:#000000;stroke-width:0.08466668;stroke-linecap:round;stroke-linejoin:round;stroke-miterlimit:4;stroke-dasharray:none;stroke-opacity:1"
       d="m 60.96699,175.34548 c 2.939378,-1.13716 5.95116,-2.04088 9.140396,-2.37243"
       id="path4331"
       inkscape:connector-curvature="0"
       sodipodi:nodetypes="cc" />
    <path
       style="fill:none;fill-rule:evenodd;stroke:#000000;stroke-width:0.08466668;stroke-linecap:round;stroke-linejoin:round;stroke-miterlimit:4;stroke-dasharray:none;stroke-opacity:1"
       d="m 56.244202,174.4405 c -0.893274,-6.78067 -0.636156,-21.38725 8.237915,-30.69249 1.471187,-0.98448 3.107861,0.42527 2.550828,1.00425 -4.94065,7.7868 -7.710723,16.65959 -5.979805,27.78433"
       id="path4333"
       inkscape:connector-curvature="0"
       sodipodi:nodetypes="cccc" />
    <path
       style="fill:none;fill-rule:evenodd;stroke:#000000;stroke-width:0.08466668;stroke-linecap:round;stroke-linejoin:round;stroke-miterlimit:4;stroke-dasharray:none;stroke-opacity:1"
       d="m 59.58955,173.12241 c -0.68316,-9.40183 -0.546294,-18.88674 7.006933,-29.38748"
       id="path4335"
       inkscape:connector-curvature="0"
       sodipodi:nodetypes="cc" />
    <path
       style="fill:none;fill-rule:evenodd;stroke:#000000;stroke-width:0.08466668;stroke-linecap:round;stroke-linejoin:round;stroke-miterlimit:4;stroke-dasharray:none;stroke-opacity:1"
       d="m 65.799348,143.43418 c -10.08543,11.78996 -8.939494,24.72602 -8.345429,30.42198"
       id="path4337"
       inkscape:connector-curvature="0"
       sodipodi:nodetypes="cc" />
    <path
       style="fill:none;fill-rule:evenodd;stroke:#000000;stroke-width:0.08466668;stroke-linecap:round;stroke-linejoin:round;stroke-miterlimit:4;stroke-dasharray:none;stroke-opacity:1"
       d="m 69.332871,170.52809 c -0.543636,-7.85669 -1.673571,-15.72535 3.052628,-23.47441 0.719647,-0.87904 3.131063,-0.39292 2.843544,1.21346 -3.966453,7.90687 -2.571371,14.63343 -1.087239,21.34039"
       id="path4339"
       inkscape:connector-curvature="0"
       sodipodi:nodetypes="cccc" />
    <path
       style="fill:none;fill-rule:evenodd;stroke:#000000;stroke-width:0.08466668;stroke-linecap:round;stroke-linejoin:round;stroke-miterlimit:4;stroke-dasharray:none;stroke-opacity:1"
       d="m 74.78108,147.0766 c -4.604789,8.08368 -3.138425,15.3784 -1.833278,22.69407"
       id="path4341"
       inkscape:connector-curvature="0"
       sodipodi:nodetypes="cc" />
    <path
       style="fill:none;fill-rule:evenodd;stroke:#000000;stroke-width:0.08466668;stroke-linecap:round;stroke-linejoin:round;stroke-miterlimit:4;stroke-dasharray:none;stroke-opacity:1"
       d="m 73.675938,146.65497 c -5.069733,7.49185 -3.835944,16.32435 -2.945807,23.52993"
       id="path4343"
       inkscape:connector-curvature="0"
       sodipodi:nodetypes="cc" />
    <path
       style="fill:none;fill-rule:evenodd;stroke:#000000;stroke-width:0.08466668;stroke-linecap:round;stroke-linejoin:round;stroke-miterlimit:4;stroke-dasharray:none;stroke-opacity:1"
       d="m 92.581764,141.59437 -0.0196,0.85647 14.531346,-2.88723 c 2.28661,-1.9028 1.40964,-4.57562 1.86085,-6.92515"
       id="path4345"
       inkscape:connector-curvature="0"
       sodipodi:nodetypes="cccc" />
    <path
       style="fill:none;fill-rule:evenodd;stroke:#000000;stroke-width:0.08466668;stroke-linecap:round;stroke-linejoin:round;stroke-miterlimit:4;stroke-dasharray:none;stroke-opacity:1"
       d="m 93.034354,131.78468 -0.30497,9.30623 c 0.0465,0.56185 -0.23909,0.58749 -0.71088,0.64859 -12.797495,0.46428 -13.50164,-9.37857 0.11678,-9.95482 z"
       id="path4347"
       inkscape:connector-curvature="0"
       sodipodi:nodetypes="ccccc" />
    <path
       style="fill:none;fill-rule:evenodd;stroke:#000000;stroke-width:0.08466668;stroke-linecap:round;stroke-linejoin:round;stroke-miterlimit:4;stroke-dasharray:none;stroke-opacity:1"
       d="m 92.049354,131.86831 -0.3496,9.87802"
       id="path4349"
       inkscape:connector-curvature="0"
       sodipodi:nodetypes="cc" />
    <path
       style="fill:none;fill-rule:evenodd;stroke:#000000;stroke-width:0.08466668;stroke-linecap:round;stroke-linejoin:round;stroke-miterlimit:4;stroke-dasharray:none;stroke-opacity:1"
       d="m 91.957344,133.79743 -6.307462,-0.69955"
       id="path4351"
       inkscape:connector-curvature="0"
       sodipodi:nodetypes="cc" />
    <path
       style="fill:none;fill-rule:evenodd;stroke:#000000;stroke-width:0.08466668;stroke-linecap:round;stroke-linejoin:round;stroke-miterlimit:4;stroke-dasharray:none;stroke-opacity:1"
       d="m 91.913174,135.46179 -9.393287,0.26042"
       id="path4353"
       inkscape:connector-curvature="0"
       sodipodi:nodetypes="cc" />
    <path
       style="fill:none;fill-rule:evenodd;stroke:#000000;stroke-width:0.08466668;stroke-linecap:round;stroke-linejoin:round;stroke-miterlimit:4;stroke-dasharray:none;stroke-opacity:1"
       d="m 91.842374,137.19417 c -0.0591,-0.0148 -9.204491,1.40388 -9.204491,1.40388"
       id="path4355"
       inkscape:connector-curvature="0"
       sodipodi:nodetypes="cc" />
    <path
       style="fill:none;fill-rule:evenodd;stroke:#000000;stroke-width:0.08466668;stroke-linecap:round;stroke-linejoin:round;stroke-miterlimit:4;stroke-dasharray:none;stroke-opacity:1"
       d="m 91.798014,138.89549 -6.780476,1.70443"
       id="path4357"
       inkscape:connector-curvature="0"
       sodipodi:nodetypes="cc" />
    <path
       style="fill:none;fill-rule:evenodd;stroke:#000000;stroke-width:0.08466668;stroke-linecap:round;stroke-linejoin:round;stroke-miterlimit:4;stroke-dasharray:none;stroke-opacity:1"
       d="m 91.737314,140.33739 -3.05882,1.25062"
       id="path4361"
       inkscape:connector-curvature="0"
       sodipodi:nodetypes="cc" />
    <path
       style="fill:none;fill-rule:evenodd;stroke:#000000;stroke-width:0.08466668;stroke-linecap:round;stroke-linejoin:round;stroke-miterlimit:4;stroke-dasharray:none;stroke-opacity:1"
       d="M 93.034264,132.11206 104.84224,130.3552"
       id="path4363"
       inkscape:connector-curvature="0"
       sodipodi:nodetypes="cc" />
    <path
       style="fill:none;fill-rule:evenodd;stroke:#000000;stroke-width:0.08466668;stroke-linecap:round;stroke-linejoin:round;stroke-miterlimit:4;stroke-dasharray:none;stroke-opacity:1"
       d="m 113.23438,143.05653 c 0.73856,-1.26838 3.30029,-0.90786 5.15288,-1.18094"
       id="path4365"
       inkscape:connector-curvature="0"
       sodipodi:nodetypes="cc" />
    <path
       style="fill:none;fill-rule:evenodd;stroke:#000000;stroke-width:0.08466668;stroke-linecap:round;stroke-linejoin:round;stroke-miterlimit:4;stroke-dasharray:none;stroke-opacity:1"
       d="m 95.906904,130.61422 5.380236,-0.45868"
       id="path4367"
       inkscape:connector-curvature="0"
       sodipodi:nodetypes="cc" />
    <ellipse
       style="opacity:1;fill:none;fill-opacity:1;stroke:#000000;stroke-width:0.08466668;stroke-linecap:round;stroke-linejoin:round;stroke-miterlimit:4;stroke-dasharray:none;stroke-dashoffset:0;stroke-opacity:1"
       id="path4369"
       cx="97.360176"
       cy="133.0435"
       rx="1.0970645"
       ry="1.0977743" />
    <ellipse
       cy="140.39528"
       cx="97.02774"
       id="circle4371"
       style="opacity:1;fill:none;fill-opacity:1;stroke:#000000;stroke-width:0.08466668;stroke-linecap:round;stroke-linejoin:round;stroke-miterlimit:4;stroke-dasharray:none;stroke-dashoffset:0;stroke-opacity:1"
       rx="0.69813192"
       ry="0.6985836" />
    <ellipse
       style="opacity:1;fill:none;fill-opacity:1;stroke:#000000;stroke-width:0.08466668;stroke-linecap:round;stroke-linejoin:round;stroke-miterlimit:4;stroke-dasharray:none;stroke-dashoffset:0;stroke-opacity:1"
       id="circle4373"
       cx="121.79482"
       cy="134.37413"
       rx="0.86435395"
       ry="0.86491323" />
    <path
       style="opacity:1;fill:none;fill-opacity:1;stroke:#000000;stroke-width:0.08466668;stroke-linecap:round;stroke-linejoin:round;stroke-miterlimit:4;stroke-dasharray:none;stroke-dashoffset:0;stroke-opacity:1"
       d="m 98.463334,133.06938 -0.006,0.30678 c 0,0.60629 -0.49117,1.09777 -1.09706,1.09777 -0.6059,0 -1.09707,-0.4915 -1.09707,-1.09777 l -0.004,-0.33325"
       id="circle4375"
       inkscape:connector-curvature="0"
       sodipodi:nodetypes="csccc" />
    <path
       style="opacity:1;fill:none;fill-opacity:1;stroke:#000000;stroke-width:0.08466668;stroke-linecap:round;stroke-linejoin:round;stroke-miterlimit:4;stroke-dasharray:none;stroke-dashoffset:0;stroke-opacity:1"
       d="m 120.95346,134.49427 c 0.0725,-0.44341 0.49449,-0.74884 0.94242,-0.68221 0.44793,0.0667 0.75223,0.48008 0.67968,0.92348"
       id="circle4378"
       inkscape:connector-curvature="0"
       sodipodi:nodetypes="csc" />
    <path
       sodipodi:type="spiral"
       style="fill:none;fill-rule:evenodd;stroke:#000000;stroke-width:0.20985304;stroke-linecap:round;stroke-linejoin:round;stroke-miterlimit:4;stroke-dasharray:none;stroke-opacity:1"
       id="path4381"
       sodipodi:cx="656.125"
       sodipodi:cy="652.86218"
       sodipodi:expansion="1"
       sodipodi:revolution="1.6"
       sodipodi:radius="4.6987367"
       sodipodi:argument="-16.20731"
       sodipodi:t0="0"
       d="m 656.125,652.86218 c -0.38779,0.21152 -0.47645,-0.41837 -0.35156,-0.64453 0.33843,-0.61287 1.20929,-0.47126 1.64062,-0.0586 0.77156,0.73816 0.51879,1.99138 -0.23437,2.63672 -1.1053,0.94706 -2.78529,0.57106 -3.63282,-0.52735 -1.12961,-1.46401 -0.62557,-3.58355 0.82032,-4.6289 1.8195,-1.31548 4.38392,-0.68127 5.625,1.11328 0.54714,0.79114 0.82117,1.75359 0.79252,2.7137"
       transform="matrix(-0.20575821,-0.34863235,-0.34976949,0.19846864,498.50534,234.84731)" />
    <path
       style="fill:none;fill-rule:evenodd;stroke:#000000;stroke-width:0.08466668;stroke-linecap:round;stroke-linejoin:round;stroke-miterlimit:4;stroke-dasharray:none;stroke-opacity:1"
       d="m 132.78696,133.88386 c 0.55296,-0.61285 1.34051,-1.56024 2.76211,-0.90562"
       id="path4386"
       inkscape:connector-curvature="0"
       sodipodi:nodetypes="cc" />
    <path
       style="fill:none;fill-rule:evenodd;stroke:#000000;stroke-width:0.08466668;stroke-linecap:round;stroke-linejoin:round;stroke-miterlimit:4;stroke-dasharray:none;stroke-opacity:1"
       d="m 131.70562,134.01323 c 0.25216,-0.81296 0.57555,-1.5404 1.4457,-1.61129"
       id="path4388"
       inkscape:connector-curvature="0"
       sodipodi:nodetypes="cc" />
    <path
       style="fill:none;fill-rule:evenodd;stroke:#000000;stroke-width:0.08466668;stroke-linecap:round;stroke-linejoin:round;stroke-miterlimit:4;stroke-dasharray:none;stroke-opacity:1"
       d="m 131.14145,133.14877 c -0.73738,0.49102 -0.72877,1.48704 -0.72873,1.92885"
       id="path4392"
       inkscape:connector-curvature="0"
       sodipodi:nodetypes="cc" />
    <path
       style="fill:none;fill-rule:evenodd;stroke:#000000;stroke-width:0.08466668;stroke-linecap:round;stroke-linejoin:round;stroke-miterlimit:4;stroke-dasharray:none;stroke-opacity:1"
       d="m 97.219664,125.20351 c 0.94248,1.35522 2.24704,1.25903 3.398466,1.8355"
       id="path4411"
       inkscape:connector-curvature="0"
       sodipodi:nodetypes="cc" />
    <path
       style="fill:none;fill-rule:evenodd;stroke:#000000;stroke-width:0.08466668;stroke-linecap:round;stroke-linejoin:round;stroke-miterlimit:4;stroke-dasharray:none;stroke-opacity:1"
       d="m 92.539754,142.44112 c -4.1482,-0.33206 -9.34151,-0.13176 -10.305761,-4.72377"
       id="path4413"
       inkscape:connector-curvature="0"
       sodipodi:nodetypes="cc" />
  </g>
</svg>
