<?xml version="1.0" encoding="UTF-8" standalone="no"?>
<!-- Created with Inkscape (http://www.inkscape.org/) -->

<svg
   xmlns:dc="http://purl.org/dc/elements/1.1/"
   xmlns:cc="http://creativecommons.org/ns#"
   xmlns:rdf="http://www.w3.org/1999/02/22-rdf-syntax-ns#"
   xmlns:svg="http://www.w3.org/2000/svg"
   xmlns="http://www.w3.org/2000/svg"
   xmlns:sodipodi="http://sodipodi.sourceforge.net/DTD/sodipodi-0.dtd"
   xmlns:inkscape="http://www.inkscape.org/namespaces/inkscape"
   width="104.13245mm"
   height="104.13245mm"
   viewBox="0 0 104.13245 104.13245"
   version="1.1"
   id="svg1677"
   inkscape:version="0.92.4 (5da689c313, 2019-01-14)"
   sodipodi:docname="peperbox.svg">
  <defs
     id="defs1671" />
  <sodipodi:namedview
     id="base"
     pagecolor="#ffffff"
     bordercolor="#666666"
     borderopacity="1.0"
     inkscape:pageopacity="0.0"
     inkscape:pageshadow="2"
     inkscape:zoom="1.4"
     inkscape:cx="13.240503"
     inkscape:cy="142.31883"
     inkscape:document-units="mm"
     inkscape:current-layer="layer1"
     showgrid="false"
     inkscape:window-width="1920"
     inkscape:window-height="1052"
     inkscape:window-x="0"
     inkscape:window-y="1080"
     inkscape:window-maximized="1" />
  <metadata
     id="metadata1674">
    <rdf:RDF>
      <cc:Work
         rdf:about="">
        <dc:format>image/svg+xml</dc:format>
        <dc:type
           rdf:resource="http://purl.org/dc/dcmitype/StillImage" />
        <dc:title></dc:title>
      </cc:Work>
    </rdf:RDF>
  </metadata>
  <g
     inkscape:label="Layer 1"
     inkscape:groupmode="layer"
     id="layer1"
     transform="translate(-51.499252,-6.052824)">
    <path
       style="fill:none;fill-rule:evenodd;stroke:#000000;stroke-width:0.28222221px;stroke-linecap:round;stroke-linejoin:round;stroke-opacity:1"
       d="m 110.35376,40.038011 c -1.16855,6.305143 -1.05004,13.540542 -0.93742,21.276291 l -1.06241,-0.06258 c 0.16838,-7.150715 -0.39553,-14.720419 0.81243,-21.276297 z"
       id="path4214"
       inkscape:connector-curvature="0"
       sodipodi:nodetypes="ccccc" />
    <path
       style="fill:none;fill-rule:evenodd;stroke:#000000;stroke-width:0.28222221px;stroke-linecap:round;stroke-linejoin:round;stroke-opacity:1"
       d="m 110.04573,42.146421 43.05254,2.256691 c 0.88757,1.610325 0.87763,3.183199 0.35353,4.734628 l 0.13253,1.238968 c 1.55906,3.914508 0.34004,5.461569 -0.79544,7.079817 l -0.39772,0.929224 c -0.17326,1.183726 -0.76947,1.913686 -1.7676,2.212444 L 109.44912,58.72868"
       id="path4216"
       inkscape:connector-curvature="0"
       sodipodi:nodetypes="cccccccc" />
    <path
       style="fill:none;fill-rule:evenodd;stroke:#000000;stroke-width:0.28222221px;stroke-linecap:round;stroke-linejoin:round;stroke-opacity:1"
       d="M 153.44386,49.111732 109.59715,46.765081"
       id="path4206"
       inkscape:connector-curvature="0"
       sodipodi:nodetypes="cc" />
    <path
       style="fill:none;fill-rule:evenodd;stroke:#000000;stroke-width:0.28222221px;stroke-linecap:round;stroke-linejoin:round;stroke-opacity:1"
       d="M 153.63133,50.363276 109.59715,48.141781"
       id="path4208"
       inkscape:connector-curvature="0"
       sodipodi:nodetypes="cc" />
    <path
       style="fill:none;fill-rule:evenodd;stroke:#000000;stroke-width:0.28222221px;stroke-linecap:round;stroke-linejoin:round;stroke-opacity:1"
       d="M 152.78767,57.309359 109.44126,55.027186"
       id="path4210"
       inkscape:connector-curvature="0"
       sodipodi:nodetypes="cc" />
    <path
       style="fill:none;fill-rule:evenodd;stroke:#000000;stroke-width:0.28222221px;stroke-linecap:round;stroke-linejoin:round;stroke-opacity:1"
       d="M 152.35018,58.24802 109.44126,55.965846"
       id="path4212"
       inkscape:connector-curvature="0"
       sodipodi:nodetypes="cc" />
    <path
       style="fill:none;fill-rule:evenodd;stroke:#000000;stroke-width:0.28222221px;stroke-linecap:round;stroke-linejoin:round;stroke-opacity:1"
       d="m 109.08399,40.105695 -4.22978,-0.05027 c -1.88213,7.223137 -0.81868,13.605597 -0.81244,20.601823 l 4.15591,0.344175"
       id="path4215"
       inkscape:connector-curvature="0"
       sodipodi:nodetypes="cccc" />
    <path
       style="fill:none;fill-rule:evenodd;stroke:#000000;stroke-width:0.28222221px;stroke-linecap:round;stroke-linejoin:round;stroke-opacity:1"
       d="M 104.24576,42.146429 91.982902,41.482695 C 65.228757,41.309062 56.155546,54.617772 53.500614,72.22583"
       id="path4217"
       inkscape:connector-curvature="0"
       sodipodi:nodetypes="ccc" />
    <path
       style="fill:none;fill-rule:evenodd;stroke:#000000;stroke-width:0.28222221px;stroke-linecap:round;stroke-linejoin:round;stroke-opacity:1"
       d="m 53.293888,72.659152 c 0.618641,-2.314704 9.684172,-1.469708 10.162507,1.470568 -0.7749,1.81572 -9.604198,1.460773 -10.162507,-1.470568 z"
       id="path4219"
       inkscape:connector-curvature="0"
       sodipodi:nodetypes="ccc" />
    <path
       style="fill:none;fill-rule:evenodd;stroke:#000000;stroke-width:0.28222221px;stroke-linecap:round;stroke-linejoin:round;stroke-opacity:1"
       d="m 87.024268,54.601507 2.60739,-0.03283 c -3.904707,3.68128 -3.192391,6.808903 -1.80725,11.376382 -2.009382,-2.806131 -4.84928,-4.392752 -0.80014,-11.343526 z"
       id="path4221"
       inkscape:connector-curvature="0"
       sodipodi:nodetypes="cccc" />
    <path
       style="fill:none;fill-rule:evenodd;stroke:#000000;stroke-width:0.28222221px;stroke-linecap:round;stroke-linejoin:round;stroke-opacity:1"
       d="m 83.918486,54.211781 c -14.051296,14.401545 18.662234,19.710057 9.905416,0.03128 l 0.965086,0.09393"
       id="path4223"
       inkscape:connector-curvature="0"
       sodipodi:nodetypes="cc" />
    <path
       sodipodi:nodetypes="cccccc"
       inkscape:connector-curvature="0"
       id="path4225"
       d="m 95.584416,55.81932 6.219814,0.608424 0.0442,-2.212441 -7.018302,0.134407 C 105.01599,75.533694 67.472853,69.270023 82.936093,54.203425 l 0.959028,-0.01508"
       style="fill:none;fill-rule:evenodd;stroke:#000000;stroke-width:0.28222221;stroke-linecap:round;stroke-linejoin:round;stroke-miterlimit:4;stroke-dasharray:none;stroke-opacity:1" />
    <path
       style="fill:none;fill-rule:evenodd;stroke:#000000;stroke-width:0.28222221px;stroke-linecap:round;stroke-linejoin:round;stroke-opacity:1"
       d="m 63.435877,73.735659 c 3.626866,-7.729123 6.613304,-16.75391 17.731417,-17.728278"
       id="path4227"
       inkscape:connector-curvature="0"
       sodipodi:nodetypes="cc" />
    <path
       style="fill:none;fill-rule:evenodd;stroke:#000000;stroke-width:0.28222221px;stroke-linecap:round;stroke-linejoin:round;stroke-opacity:1"
       d="m 82.37148,56.01844 3.768248,0.07419"
       id="path4229"
       inkscape:connector-curvature="0"
       sodipodi:nodetypes="cc" />
    <path
       style="fill:none;fill-rule:evenodd;stroke:#000000;stroke-width:0.28222221px;stroke-linecap:round;stroke-linejoin:round;stroke-opacity:1"
       d="m 88.323133,56.084814 6.278056,0.376118"
       id="path4231"
       inkscape:connector-curvature="0"
       sodipodi:nodetypes="cc" />
    <path
       style="fill:none;fill-rule:evenodd;stroke:#000000;stroke-width:0.28222221px;stroke-linecap:round;stroke-linejoin:round;stroke-opacity:1"
       d="m 95.827455,56.626864 7.998475,0.741168"
       id="path4233"
       inkscape:connector-curvature="0"
       sodipodi:nodetypes="cc" />
    <path
       style="fill:none;fill-rule:evenodd;stroke:#000000;stroke-width:0.28222221px;stroke-linecap:round;stroke-linejoin:round;stroke-opacity:1"
       d="m 92.55057,41.563336 c -2.873618,3.963497 -0.841982,9.612958 -0.476527,14.682211"
       id="path4235"
       inkscape:connector-curvature="0"
       sodipodi:nodetypes="cc" />
    <path
       style="fill:none;fill-rule:evenodd;stroke:#000000;stroke-width:0.28222221px;stroke-linecap:round;stroke-linejoin:round;stroke-opacity:1"
       d="m 98.292259,41.696316 c 1.07263,-1.293787 2.047531,-2.632437 5.062091,-3.034999 l 1.0624,0.750929 3.71844,-0.406754 c -1.69412,-1.171771 -5.06096,-2.216194 -4.78084,-3.72335 0.34915,-2.216799 3.67183,-3.584088 5.70162,-5.060427 0.73708,-0.536114 0.27289,-1.140933 0.89156,-1.729214 -4.46436,2.350789 -9.64213,4.554172 -9.06172,7.947322 -2.772521,-10e-4 -5.497618,1.326584 -8.186818,3.660773 -2.605119,-1.207232 -3.863175,0.27516 -5.266123,1.395192"
       id="path4237"
       inkscape:connector-curvature="0"
       sodipodi:nodetypes="cccccscccc" />
    <path
       style="fill:none;fill-rule:evenodd;stroke:#000000;stroke-width:0.08466664;stroke-linecap:butt;stroke-linejoin:miter;stroke-miterlimit:4;stroke-dasharray:none;stroke-opacity:1"
       d="m 92.542764,45.044204 c 0.919124,-0.934215 1.819622,-1.289625 2.656028,0.344175 -0.04331,2.230684 -3.312205,1.151347 -2.656028,-0.344175 z"
       id="path4241"
       inkscape:connector-curvature="0"
       sodipodi:nodetypes="ccc" />
    <path
       style="fill:none;fill-rule:evenodd;stroke:#000000;stroke-width:0.08466664;stroke-linecap:butt;stroke-linejoin:miter;stroke-miterlimit:4;stroke-dasharray:none;stroke-opacity:1"
       d="m 92.529749,45.072386 c 0.926682,-0.07571 1.828946,-0.160713 2.640379,0.398237"
       id="path4243"
       inkscape:connector-curvature="0"
       sodipodi:nodetypes="cc" />
    <path
       style="fill:none;fill-rule:evenodd;stroke:#000000;stroke-width:0.08466664;stroke-linecap:round;stroke-linejoin:round;stroke-miterlimit:4;stroke-dasharray:none;stroke-opacity:1"
       d="m 69.512064,51.173194 -0.773332,-1.70358 -0.265144,0.486736"
       id="path4245"
       inkscape:connector-curvature="0" />
    <path
       style="fill:none;fill-rule:evenodd;stroke:#000000;stroke-width:0.08466664;stroke-linecap:round;stroke-linejoin:round;stroke-miterlimit:4;stroke-dasharray:none;stroke-opacity:1"
       d="m 70.661012,48.772694 1.082667,-0.508862 c -0.284256,0.747805 -0.222759,1.457137 0.0221,2.14607"
       id="path4247"
       inkscape:connector-curvature="0"
       sodipodi:nodetypes="ccc" />
    <path
       style="fill:none;fill-rule:evenodd;stroke:#000000;stroke-width:0.08466664;stroke-linecap:round;stroke-linejoin:round;stroke-miterlimit:4;stroke-dasharray:none;stroke-opacity:1"
       d="m 73.934982,49.539931 c 0.565845,0.03438 0.854578,-0.219833 0.684955,-0.951352 -0.396517,-2.275817 -2.477214,0.366826 -0.265147,-0.04426"
       id="path4249"
       inkscape:connector-curvature="0"
       sodipodi:nodetypes="ccc" />
    <path
       style="fill:none;fill-rule:evenodd;stroke:#000000;stroke-width:0.08466664;stroke-linecap:round;stroke-linejoin:round;stroke-miterlimit:4;stroke-dasharray:none;stroke-opacity:1"
       d="m 75.787104,47.013802 c 0.06629,0 1.049522,-0.210184 1.049522,-0.210184 l -0.762284,1.128346 c 2.408025,-0.583921 0.516281,2.28851 0.0221,0.696919"
       id="path4251"
       inkscape:connector-curvature="0"
       sodipodi:nodetypes="cccc" />
    <path
       style="fill:none;fill-rule:evenodd;stroke:#000000;stroke-width:0.08466664;stroke-linecap:round;stroke-linejoin:round;stroke-miterlimit:4;stroke-dasharray:none;stroke-opacity:1"
       d="m 93.758091,54.179431 1.075092,-0.882295 6.805327,0.221249 0.27831,0.627187"
       id="path4253"
       inkscape:connector-curvature="0"
       sodipodi:nodetypes="cccc" />
    <path
       style="fill:none;fill-rule:evenodd;stroke:#000000;stroke-width:0.08466664;stroke-linecap:round;stroke-linejoin:miter;stroke-miterlimit:4;stroke-dasharray:none;stroke-opacity:1"
       d="m 53.736081,70.974554 c 4.285543,-1.596171 7.555258,-0.572527 10.108564,1.714645"
       id="path4255"
       inkscape:connector-curvature="0"
       sodipodi:nodetypes="cc" />
    <path
       sodipodi:nodetypes="ccc"
       inkscape:connector-curvature="0"
       id="path4257"
       d="m 99.636249,55.49739 c 0.457111,0.461894 0.904951,0.637614 1.320941,-0.170165 -0.0213,-1.102891 -1.647281,-0.569249 -1.320941,0.170165 z"
       style="fill:none;fill-rule:evenodd;stroke:#000000;stroke-width:0.08466664;stroke-linecap:butt;stroke-linejoin:miter;stroke-miterlimit:4;stroke-dasharray:none;stroke-opacity:1" />
    <path
       sodipodi:nodetypes="cc"
       inkscape:connector-curvature="0"
       id="path4259"
       d="m 99.629759,55.483457 c 0.460901,0.03745 0.909631,0.07947 1.313191,-0.196895"
       style="fill:none;fill-rule:evenodd;stroke:#000000;stroke-width:0.08466664;stroke-linecap:butt;stroke-linejoin:miter;stroke-miterlimit:4;stroke-dasharray:none;stroke-opacity:1" />
    <path
       style="fill:none;fill-rule:evenodd;stroke:#000000;stroke-width:0.08466664;stroke-linecap:butt;stroke-linejoin:miter;stroke-miterlimit:4;stroke-dasharray:none;stroke-opacity:1"
       d="m 89.04306,55.259964 1.187395,0.01564 0.0312,-1.251548 -4.046528,-0.03128 -0.01562,1.204614 0.499958,-0.01564"
       id="path4299"
       inkscape:connector-curvature="0"
       sodipodi:nodetypes="cccccc" />
  </g>
</svg>
