<?xml version="1.0" encoding="UTF-8" standalone="no"?>
<!-- Created with Inkscape (http://www.inkscape.org/) -->

<svg
   xmlns:dc="http://purl.org/dc/elements/1.1/"
   xmlns:cc="http://creativecommons.org/ns#"
   xmlns:rdf="http://www.w3.org/1999/02/22-rdf-syntax-ns#"
   xmlns:svg="http://www.w3.org/2000/svg"
   xmlns="http://www.w3.org/2000/svg"
   xmlns:sodipodi="http://sodipodi.sourceforge.net/DTD/sodipodi-0.dtd"
   xmlns:inkscape="http://www.inkscape.org/namespaces/inkscape"
   width="104.13245mm"
   height="104.13245mm"
   viewBox="0 0 104.13245 104.13245"
   version="1.1"
   id="svg5347"
   inkscape:version="0.92.4 (5da689c313, 2019-01-14)"
   sodipodi:docname="tepeliq.svg">
  <defs
     id="defs5341" />
  <sodipodi:namedview
     id="base"
     pagecolor="#ffffff"
     bordercolor="#666666"
     borderopacity="1.0"
     inkscape:pageopacity="0.0"
     inkscape:pageshadow="2"
     inkscape:zoom="1.4"
     inkscape:cx="94.43946"
     inkscape:cy="179.67523"
     inkscape:document-units="mm"
     inkscape:current-layer="layer1"
     showgrid="false"
     inkscape:window-width="1920"
     inkscape:window-height="1052"
     inkscape:window-x="0"
     inkscape:window-y="1080"
     inkscape:window-maximized="1" />
  <metadata
     id="metadata5344">
    <rdf:RDF>
      <cc:Work
         rdf:about="">
        <dc:format>image/svg+xml</dc:format>
        <dc:type
           rdf:resource="http://purl.org/dc/dcmitype/StillImage" />
        <dc:title></dc:title>
      </cc:Work>
    </rdf:RDF>
  </metadata>
  <g
     inkscape:label="Layer 1"
     inkscape:groupmode="layer"
     id="layer1"
     transform="translate(-75.689728,-66.529015)">
    <path
       style="display:inline;fill:none;fill-rule:evenodd;stroke:#000000;stroke-width:0.28222221px;stroke-linecap:butt;stroke-linejoin:miter;stroke-opacity:1"
       d="m 108.13833,115.35 c -4.01294,2.08604 -1.52607,6.50699 1.69074,5.35322 6.47735,-2.11233 4.50531,-6.41778 2.23275,-7.81607 -1.06141,-0.65363 -3.18937,-0.66749 -2.3847,-2.44057 1.17986,-2.92302 3.53187,-0.39668 5.33236,-0.43442 l 0.76297,-0.62147 -3.28401,-2.32792 c -0.37568,-0.29419 -0.52441,-0.86039 0.32342,-2.6209 5.1725,-2.15616 -4.60167,-5.548131 -1.45212,-0.15623 -0.7006,0.84388 -2.18672,0.76938 -2.02061,2.62659 0.0354,2.08631 -2.97054,5.61127 0.10643,6.25896 4.83851,4.33641 -1.02429,1.43371 -1.30726,2.17881 z"
       id="path4185"
       inkscape:connector-curvature="0"
       sodipodi:nodetypes="cccccccccccc" />
    <path
       style="display:inline;fill:none;fill-rule:evenodd;stroke:#000000;stroke-width:0.28222221px;stroke-linecap:butt;stroke-linejoin:miter;stroke-opacity:1"
       d="m 108.68949,123.5202 c 0.77256,0.7987 1.02843,1.84527 2.31896,2.39549 0.64747,0.23575 1.7606,0.76989 1.54138,1.016 0.20784,1.6287 -2.12271,0.77664 -0.87983,0.0997"
       id="path4187"
       inkscape:connector-curvature="0"
       sodipodi:nodetypes="cccc" />
    <path
       style="display:inline;fill:none;fill-rule:evenodd;stroke:#000000;stroke-width:0.28222221;stroke-linecap:butt;stroke-linejoin:miter;stroke-miterlimit:4.5;stroke-dasharray:none;stroke-opacity:1"
       d="m 117.44994,109.55066 c 0.15457,0.0255 2.22415,-0.34736 2.13789,-1.47109 -1.11278,-2.01989 -2.57577,-1.39408 -2.70261,-3.02901 1.37313,-2.25195 2.22628,-6.444662 3.27087,-9.922779 l 0.12783,4.424735 -1.55197,5.452284 c 0.64167,0.83272 1.33085,1.65068 3.2337,2.02058 0.56978,2.8907 1.71561,2.68589 3.05144,1.45994 -1.37651,3.63495 -2.35649,1.70982 -3.42882,1.07919 -0.14161,1.36876 -0.97104,1.56557 -1.71749,1.90378 -1.04897,0.0377 -1.81058,-0.72826 -2.42084,-1.91763 z"
       id="path4189"
       inkscape:connector-curvature="0"
       sodipodi:nodetypes="ccccccccccc" />
    <path
       style="display:inline;fill:none;fill-rule:evenodd;stroke:#000000;stroke-width:0.28222221px;stroke-linecap:butt;stroke-linejoin:miter;stroke-opacity:1"
       d="m 102.6011,128.01766 c 6.05132,7.8455 16.28524,-2.63323 11.82042,-7.70938"
       id="path4191"
       inkscape:connector-curvature="0"
       sodipodi:nodetypes="cc" />
    <path
       style="display:inline;fill:none;fill-rule:evenodd;stroke:#000000;stroke-width:0.28222221px;stroke-linecap:butt;stroke-linejoin:miter;stroke-opacity:1"
       d="M 119.25792,105.44507 172.114,79.576968 c 2.3239,0.619925 2.17392,1.998451 2.37954,3.267937 0.97859,2.191256 0.76348,2.906006 0.21988,3.213141 0.53407,0.568566 1.50018,0.971145 0.65099,2.071089 l -4.77312,1.836511 c -0.27597,0.495706 -0.70947,0.813627 -1.47406,0.757926 l -6.39541,3.029371 c -5.80292,2.269703 -11.58972,5.487996 -17.3821,8.377837 -7.2304,3.77247 -13.05078,8.09402 -18.88545,12.41001 -4.07139,1.64728 -8.14059,3.30619 -12.07494,5.68544 -4.35825,2.30413 -8.41942,4.81182 -11.89158,7.72319 -9.354958,9.03957 -11.78762,16.22422 -7.745756,21.67394 -0.529964,2.61903 -0.08181,5.67136 -4.980952,6.35503 -0.181377,0.70861 -0.527917,1.34903 -1.850557,1.58656 -1.73742,2.19047 -2.657537,1.19698 -3.434499,-0.13828 -1.063871,-0.19768 -1.734425,-0.83288 -1.867624,-2.06586 -3.227196,-1.10659 -2.546722,-3.45931 -2.349299,-5.65797 0.64175,-3.31613 2.910098,-2.12166 4.159808,-6.29584 4.376097,-14.63265 12.002445,-25.21344 23.756309,-32.6331"
       id="path4193"
       inkscape:connector-curvature="0"
       sodipodi:nodetypes="cccccccccccccccccccc" />
    <path
       style="display:inline;fill:none;fill-rule:evenodd;stroke:#000000;stroke-width:0.28222221px;stroke-linecap:butt;stroke-linejoin:miter;stroke-opacity:1"
       d="M 122.25092,107.81871 174.35499,82.696523"
       id="path4195"
       inkscape:connector-curvature="0" />
    <path
       style="display:inline;fill:none;fill-rule:evenodd;stroke:#000000;stroke-width:0.28222221px;stroke-linecap:butt;stroke-linejoin:miter;stroke-opacity:1"
       d="m 174.71379,86.150314 c -11.81221,5.703495 -25.5292,11.794347 -29.47689,16.019356"
       id="path4197"
       inkscape:connector-curvature="0"
       sodipodi:nodetypes="cc" />
    <path
       style="display:inline;fill:none;fill-rule:evenodd;stroke:#000000;stroke-width:0.28222221px;stroke-linecap:butt;stroke-linejoin:miter;stroke-opacity:1"
       d="m 117.5082,106.2315 -3.58376,1.76558"
       id="path4199"
       inkscape:connector-curvature="0"
       sodipodi:nodetypes="cc" />
    <path
       style="display:inline;fill:none;fill-rule:evenodd;stroke:#000000;stroke-width:0.28222221px;stroke-linecap:butt;stroke-linejoin:miter;stroke-opacity:1"
       d="m 117.63694,110.05317 c -0.9375,0.36758 -1.78754,0.50123 -2.37493,-0.0667"
       id="path4201"
       inkscape:connector-curvature="0"
       sodipodi:nodetypes="cc" />
    <path
       style="display:inline;fill:none;fill-rule:evenodd;stroke:#000000;stroke-width:0.28222221px;stroke-linecap:butt;stroke-linejoin:miter;stroke-opacity:1"
       d="m 80.29933,150.11308 c 6.471153,0.33461 7.893563,-12.09915 14.035099,-19.56327 0.528141,-0.76247 1.793832,-0.66069 0.928789,0.29648 -4.126365,4.49623 -9.895589,23.12321 -0.7168,20.11314"
       id="path4203"
       inkscape:connector-curvature="0"
       sodipodi:nodetypes="cccc" />
    <path
       style="display:inline;fill:none;fill-rule:evenodd;stroke:#000000;stroke-width:0.28222221;stroke-linecap:butt;stroke-linejoin:miter;stroke-miterlimit:4;stroke-dasharray:none;stroke-opacity:1"
       d="m 103.4828,114.02267 0.01,-1.31816 1.75001,-1.0814 0.462,0.62476"
       id="path4400"
       inkscape:connector-curvature="0" />
    <path
       style="display:inline;fill:none;fill-rule:evenodd;stroke:#000000;stroke-width:0.08466667;stroke-linecap:round;stroke-linejoin:miter;stroke-miterlimit:4.51000023;stroke-dasharray:none;stroke-opacity:1"
       d="m 80.107968,151.41144 c 3.958963,0.052 6.033769,-2.69897 7.599848,-6.20676 l 0.844929,0.2227 c -0.243959,3.86899 0.271502,7.8915 5.667924,7.01973"
       id="path4205"
       inkscape:connector-curvature="0"
       sodipodi:nodetypes="cccc" />
    <path
       style="display:inline;fill:none;fill-rule:evenodd;stroke:#000000;stroke-width:0.08466667;stroke-linecap:round;stroke-linejoin:miter;stroke-miterlimit:4.51000023;stroke-dasharray:none;stroke-opacity:1"
       d="m 94.792611,137.19516 c -0.02349,0.012 -0.04528,0.0281 -0.07071,0.035 -0.01131,0.003 -0.02274,-0.005 -0.03399,-0.007 -0.03813,-0.008 -0.08665,-0.0121 -0.120665,-0.0317 -0.01058,-0.007 -0.01385,-0.0184 -0.02299,-0.0261 -0.0056,-0.004 -0.01357,-0.005 -0.01894,-0.0109 -0.008,-0.009 -0.01399,-0.019 -0.02299,-0.0261 -0.01709,-0.0132 -0.03804,-0.022 -0.05695,-0.0328 -0.0065,-0.004 -0.01357,-0.005 -0.01894,-0.011 -0.02579,-0.0228 -0.04314,-0.0552 -0.06897,-0.0778 -0.04002,-0.0352 0.0029,0.0238 -0.04204,-0.037 -0.04094,-0.004 -0.01911,-0.0381 -0.03095,-0.0557 -0.0326,-0.0494 -0.01025,-0.01 -0.04204,-0.037 -0.01766,-0.0153 -0.03986,-0.0487 -0.05003,-0.0667 -0.0022,-0.004 -0.0017,-0.0109 -0.004,-0.0151 -0.006,-0.01 -0.01787,-0.0156 -0.02299,-0.0261 -0.02053,-0.0349 0.0045,-0.0251 -0.016,-0.0598 -0.01095,-0.0202 -0.03329,-0.0325 -0.046,-0.0517 -0.0022,-0.004 -0.0028,-0.0109 -0.004,-0.0149 -0.004,-0.0149 -0.0081,-0.03 -0.01203,-0.0448 -0.0028,-0.0109 -0.0023,-0.0211 -0.0081,-0.03 -0.0062,-0.0109 -0.01787,-0.0156 -0.02298,-0.0261 -0.006,-0.01 -0.0023,-0.0211 -0.0081,-0.03 -0.0062,-0.0109 -0.01782,-0.0155 -0.02299,-0.0261 -0.0071,-0.0138 -0.004,-0.0315 -0.01203,-0.0448 -0.0031,-0.008 -0.01492,-0.005 -0.01894,-0.011 -0.008,-0.0133 -0.0041,-0.0318 -0.01205,-0.0449 -0.0097,-0.0157 -0.03068,-0.0219 -0.04201,-0.0369 -0.007,-0.01 -0.0023,-0.0211 -0.0081,-0.03 -0.0062,-0.0109 -0.01651,-0.0164 -0.02298,-0.0261 -0.0022,-0.004 -0.0028,-0.0109 -0.004,-0.0149 -0.0014,-0.005 -0.0253,-0.0986 -0.02808,-0.1048 -0.0051,-0.007 -0.01357,-0.005 -0.01895,-0.0109 -0.0043,-0.003 -0.0028,-0.0109 -0.004,-0.0149 -0.0014,-0.005 -0.0028,-0.0109 -0.004,-0.0149 -0.0053,-0.02 -0.01069,-0.0398 -0.016,-0.0598 -0.01871,-0.0698 -0.03743,-0.1397 -0.05613,-0.2095 -0.0147,-0.0549 -0.0294,-0.10971 -0.0441,-0.16462 -0.0053,-0.0198 -0.01488,-0.0392 -0.016,-0.0598 1.39e-4,-0.0121 0.0051,-0.0227 0.0069,-0.034 0.0051,-0.0227 0.01246,-0.0448 0.01399,-0.0677 -9.1e-5,-0.004 -0.0038,-0.01 -0.004,-0.0149 1.41e-4,-0.0121 0.0061,-0.0224 0.0069,-0.034 -9.2e-5,-0.004 -0.0062,-0.0109 -0.004,-0.0149 0.0082,-0.0205 0.02687,-0.0359 0.03288,-0.057 0.0029,-0.01 -0.0086,-0.0197 -0.0081,-0.03 3.26e-4,-0.0152 0.02208,-0.0234 0.02194,-0.0381 2.41e-4,-0.0155 -0.01129,-0.0294 -0.01205,-0.0449 -0.002,-0.0116 0.0075,-0.0225 0.0069,-0.034 3.37e-4,-0.0113 -0.0097,-0.02 -0.0081,-0.03 0.0038,-0.0147 0.01458,-0.0252 0.02194,-0.0381 0.0037,-0.007 0.01036,-0.0118 0.01093,-0.019 3.38e-4,-0.0113 -0.0053,-0.02 -0.0081,-0.03 -0.0014,-0.005 -0.006,-0.01 -0.004,-0.0149 0.0017,-0.007 0.0076,-0.0133 0.01093,-0.019 0.01458,-0.0252 0.02918,-0.0505 0.04376,-0.0757 0.0037,-0.007 0.0091,-0.0115 0.01094,-0.019 0.0023,-0.0119 0.0061,-0.0225 0.0069,-0.034 -9.2e-5,-0.004 -0.0062,-0.0109 -0.004,-0.015 0.01794,-0.053 0.01852,-0.0209 0.03287,-0.057 0.0074,-0.0174 0.01036,-0.0359 0.01794,-0.053 0.0082,-0.02 0.02589,-0.0362 0.0329,-0.0569 0.0023,-0.0119 0.0028,-0.0229 0.0069,-0.034 0.0087,-0.0261 0.03511,-0.0499 0.04376,-0.0758 0.0046,-0.0164 0.0031,-0.0398 0.01796,-0.0529 0.0033,-0.004 0.01216,1.4e-4 0.01494,-0.004 0.01462,-0.016 0.02194,-0.0381 0.03288,-0.057 0.01825,-0.0315 0.03653,-0.0634 0.05468,-0.0948 0.0076,-0.0133 0.01233,-0.027 0.02194,-0.0381 0.0091,-0.008 0.01881,-0.0141 0.02598,-0.023 0.0135,-0.0173 0.0184,-0.0405 0.0329,-0.0569 0.0091,-0.008 0.01839,-0.0139 0.02588,-0.023 0.004,-0.005 0.0053,-0.0135 0.01094,-0.019 0.01214,-0.0111 0.02856,-0.0167 0.04092,-0.0269 0.0064,-0.005 0.0076,-0.0133 0.01093,-0.019 0.01353,-0.009 0.02794,-0.0165 0.04093,-0.027 0.02177,0.003 0.02623,-0.0324 0.03688,-0.0421 0.01214,-0.0111 0.02936,-0.0158 0.04088,-0.027 0.0108,-0.0109 0.01458,-0.0253 0.02194,-0.0381 0.01381,-0.009 0.02856,-0.0167 0.04092,-0.0269 0.0099,-0.009 0.02361,-0.0509 0.03288,-0.057 0.0096,-0.005 0.0213,-0.002 0.02999,-0.008 0.0064,-0.005 0.0053,-0.0135 0.01093,-0.019 0.0033,-0.004 0.01069,-0.002 0.01495,-0.004 0.01919,-0.0131 0.03254,-0.0334 0.05172,-0.046 0.0038,-0.002 0.01069,-0.002 0.01495,-0.004 0.05734,0.01 0.04025,-0.0449 0.06269,-0.0649 0.0033,-0.004 0.01047,-0.003 0.01495,-0.004 0.0091,-0.008 0.01839,-0.014 0.02599,-0.023 0.004,-0.005 0.0076,-0.0133 0.01093,-0.019 0.0091,-0.008 0.01839,-0.014 0.02598,-0.023 0.004,-0.005 0.0053,-0.0135 0.01094,-0.019 0.0033,-0.004 0.01128,3.7e-4 0.01494,-0.004 0.0064,-0.005 0.0049,-0.0149 0.01094,-0.019 0.0096,-0.005 0.02108,-0.002 0.02999,-0.008 0.02017,-0.011 0.03151,-0.0348 0.05172,-0.046 0.0096,-0.005 0.02108,-0.002 0.02999,-0.008 0.01047,-0.007 0.01839,-0.014 0.02595,-0.0231 0.004,-0.005 0.0049,-0.0149 0.01093,-0.019 0.0134,-0.008 0.03105,-0.005 0.04493,-0.012 0.01047,-0.007 0.01568,-0.0179 0.02598,-0.023 0.0096,-0.005 0.01992,-0.005 0.02988,-0.008 0.02376,-0.007 0.07117,-0.0146 0.08965,-0.024 0.01047,-0.007 0.01547,-0.0178 0.02598,-0.023 0.01389,-0.008 0.03094,-0.005 0.04493,-0.012 0.0195,-0.009 0.03651,-0.0218 0.05576,-0.031 0.01014,-0.004 0.02178,-10e-4 0.02999,-0.008 0.107045,-0.0802 -0.05454,-0.008 0.107579,-0.077 0.01014,-0.004 0.02031,-0.004 0.02988,-0.008 0.04835,-0.0208 0.09265,-0.0503 0.141483,-0.0701 0.01456,-0.005 0.03153,-0.004 0.04493,-0.012 0.02408,-0.0144 0.04294,-0.0357 0.06667,-0.0501 0.04385,-0.0269 0.01937,0.0158 0.05576,-0.031 0.0091,-0.0115 0.01233,-0.0271 0.02194,-0.0381 0.0033,-0.004 0.01069,-0.002 0.01495,-0.004 0.01412,-0.009 0.02645,-0.0192 0.04092,-0.0271 0.0038,-0.002 0.01069,-0.002 0.01494,-0.004 0.01412,-0.009 0.02794,-0.0165 0.04092,-0.0269 0.0093,-0.007 0.01568,-0.0179 0.02599,-0.023 0.0096,-0.005 0.02108,-0.002 0.02999,-0.008 0.01047,-0.007 0.01568,-0.0179 0.02599,-0.023 0.0096,-0.005 0.02108,-0.002 0.02999,-0.008 0.01047,-0.007 0.01547,-0.0178 0.02599,-0.023 0.03631,-0.0177 0.08322,-0.0144 0.119632,-0.0321 0.01047,-0.007 0.01568,-0.0179 0.02595,-0.0231 0.0096,-0.005 0.02219,-10e-4 0.02999,-0.008 0.0217,-0.0195 0.02191,-0.0565 0.04376,-0.0757 0.0072,-0.007 0.02108,-0.002 0.02999,-0.008 0.01047,-0.007 0.01548,-0.0178 0.02598,-0.023 0.01389,-0.008 0.03233,-0.003 0.04493,-0.012 0.01779,-0.0308 0.01875,-0.0418 0.04772,-0.061 0.0038,-0.002 0.01047,-0.003 0.01494,-0.004 0.01879,-0.01 0.03871,-0.0183 0.05576,-0.031 0.006,-0.005 0.005,-0.0135 0.0109,-0.019 0.003,-0.004 0.0105,-0.003 0.0149,-0.004 0.0121,-0.0145 0.0238,-0.0286 0.0369,-0.0421 0.009,-0.008 0.0171,-0.0158 0.0259,-0.023 0.009,-0.008 0.0164,-0.0165 0.026,-0.023 0.004,-0.002 0.0107,-0.002 0.015,-0.004 0.009,-0.007 0.0163,-0.0165 0.026,-0.023 0.004,-0.002 0.0113,3.6e-4 0.0149,-0.004 0.006,-0.005 0.005,-0.0135 0.0109,-0.019 0.0121,-0.0111 0.0286,-0.0167 0.0409,-0.0271 0.004,-0.004 0.005,-0.0135 0.0109,-0.019 -9e-4,-0.0486 0.04,-0.0164 0.0558,-0.031 0.006,-0.005 0.008,-0.0133 0.0109,-0.019 0.0188,-0.01 0.0387,-0.0183 0.0558,-0.031 0.006,-0.005 0.005,-0.0135 0.0109,-0.019 0.009,-0.008 0.0184,-0.014 0.026,-0.023 0.004,-0.005 0.005,-0.0135 0.0109,-0.019 0.003,-0.004 0.0105,-0.003 0.0149,-0.004 0.0135,-0.009 0.0294,-0.0158 0.0409,-0.027 0.0107,-0.0109 0.0146,-0.0252 0.0219,-0.0381 0.004,-0.007 0.005,-0.0149 0.0109,-0.019 0.01,-0.005 0.0213,-0.002 0.03,-0.008 0.008,-0.005 0.0248,-0.0477 0.0329,-0.057 0.009,-0.008 0.0184,-0.014 0.026,-0.023 0.004,-0.005 0.005,-0.0135 0.0109,-0.019 0.009,-0.008 0.0184,-0.014 0.026,-0.023 0.004,-0.005 0.005,-0.0135 0.0109,-0.019 0.003,-0.004 0.0105,-0.003 0.0149,-0.004 0.009,-0.008 0.0184,-0.014 0.026,-0.023 0.0104,-0.0118 0.0243,-0.0421 0.0329,-0.0569 0.004,-0.007 0.005,-0.0135 0.0109,-0.019 0.003,-0.004 0.0113,3.7e-4 0.0149,-0.004 0.0113,-0.009 0.0124,-0.0269 0.0219,-0.0381 0.009,-0.008 0.0184,-0.014 0.026,-0.023 0.004,-0.005 0.008,-0.0133 0.0109,-0.019 0.004,-0.007 0.009,-0.0114 0.0109,-0.019 0.002,-0.0119 0.003,-0.0233 0.007,-0.034 0.005,-0.0135 0.0189,-0.0236 0.0218,-0.0381 0.002,-0.01 -0.009,-0.0197 -0.008,-0.03 10e-4,-0.009 0.009,-0.0115 0.0109,-0.019 0.002,-0.005 -0.006,-0.01 -0.004,-0.0149 0.002,-0.007 0.0104,-0.0118 0.0109,-0.019 3.4e-4,-0.0113 -0.005,-0.02 -0.008,-0.03 -0.001,-0.005 -0.006,-0.01 -0.004,-0.0149 0.001,-0.009 0.009,-0.0115 0.0109,-0.019 0.002,-0.0119 -0.0231,-0.0658 -0.02,-0.0748 0.005,-0.0135 0.0173,-0.0242 0.0219,-0.0381 0.002,-0.005 -0.003,-0.0109 -0.004,-0.0149 -0.003,-0.0109 -0.005,-0.0198 -0.008,-0.03 -0.0121,-0.0449 -0.0241,-0.0898 -0.0361,-0.13474 -0.0147,-0.0549 -0.0294,-0.10972 -0.0441,-0.16461 -0.003,-0.0109 -0.0117,-0.0562 -0.016,-0.0598 -0.0107,-0.0109 -0.0299,-0.01 -0.038,-0.022 -0.006,-0.01 -0.002,-0.0212 -0.008,-0.03 -0.002,-0.003 -0.0521,-0.0312 -0.0569,-0.0328 -0.0118,-0.002 -0.024,-0.001 -0.0339,-0.007 -0.0106,-0.007 -0.0132,-0.0201 -0.023,-0.0261 -0.0106,-0.007 -0.0227,-0.005 -0.034,-0.007 -0.0118,-0.002 -0.0225,-0.008 -0.034,-0.007 -0.0113,-3.7e-4 -0.0194,0.009 -0.03,0.008 -0.0122,-1.2e-4 -0.0224,-0.007 -0.034,-0.007 -0.004,7e-5 -0.01,0.005 -0.0149,0.004 -0.006,-0.002 -0.0113,-0.009 -0.0189,-0.011 -0.0118,-0.002 -0.0229,-0.003 -0.034,-0.007 -0.006,-0.003 -0.0113,-0.009 -0.019,-0.0109 -0.005,-0.002 -0.0105,0.003 -0.0149,0.004 -0.0149,0.004 -0.0293,0.0123 -0.0449,0.012 -0.008,9e-4 -0.0113,-0.009 -0.019,-0.011 -0.0118,-0.002 -0.0462,0.0169 -0.0598,0.016 -0.0122,-1.3e-4 -0.0225,-0.008 -0.034,-0.007 -0.0157,-3.1e-4 -0.03,0.008 -0.0449,0.012 -0.0349,0.01 -0.0697,0.0186 -0.10466,0.028 -0.0127,0.003 -0.09787,0.0228 -0.104648,0.028 -0.0064,0.005 -0.0053,0.0135 -0.01093,0.019 -0.0033,0.004 -0.01128,-3.7e-4 -0.01495,0.004 -0.01135,0.009 -0.01292,0.0265 -0.02194,0.0381 -0.0114,0.0152 -0.0254,0.0273 -0.03688,0.0421 -0.0091,0.0114 -0.01458,0.0253 -0.02194,0.0381 -0.01458,0.0252 -0.02918,0.0505 -0.04376,0.0757 -0.0076,0.0133 -0.03816,0.0593 -0.04376,0.0757 -0.03092,0.0162 -5.1e-5,0.033 -0.0029,0.0489 -0.0012,0.009 -0.0091,0.0114 -0.01094,0.019 -0.0021,0.005 0.0062,0.0109 0.004,0.0149 -0.0043,0.0132 -0.01711,0.0241 -0.02194,0.0381 -0.0021,0.005 0.0028,0.0109 0.004,0.0149 0.0067,0.0249 0.01338,0.05 0.02004,0.0748 0.0011,0.004 0.0028,0.0109 0.004,0.0149 0.0014,0.005 -3.38e-4,0.0113 0.004,0.0149 0.0046,0.004 0.01357,0.005 0.01895,0.011 0.0063,0.008 0.01751,0.0818 0.02405,0.0897 0.0046,0.004 0.07525,0.0434 0.07577,0.0437 0.01325,0.008 0.02526,0.0146 0.03804,0.022 0.01325,0.008 0.02419,0.0172 0.03804,0.022 0.0049,0.002 0.01014,-0.004 0.01494,-0.004 0.07076,0.004 -0.0064,0.0178 0.07873,-0.005"
       id="path4213"
       inkscape:connector-curvature="0" />
    <path
       style="display:inline;fill:none;fill-rule:evenodd;stroke:#000000;stroke-width:0.08466667;stroke-linecap:round;stroke-linejoin:miter;stroke-miterlimit:4.51000023;stroke-dasharray:none;stroke-opacity:1"
       d="m 94.209096,138.58329 c -0.02444,0.0217 -0.04602,0.047 -0.07326,0.0649 -0.01299,0.008 -0.02928,0.004 -0.04222,0.0113 -0.02751,0.0119 -0.05192,0.0304 -0.0789,0.0438 -0.08692,0.043 0.136193,-0.1196 -0.10012,0.0495 -0.02444,0.0217 -0.04881,0.0432 -0.07326,0.0649 -0.01411,0.003 -0.03008,0.003 -0.04222,0.0113 -0.0096,0.005 -0.01036,0.0179 -0.0155,0.0268 -0.02625,0.0149 -0.05125,0.0321 -0.0789,0.0438 -0.03346,0.0146 -0.07046,0.0189 -0.10579,0.0284 -0.07046,0.0189 -0.140956,0.0377 -0.211444,0.0567 -0.07046,0.0189 -0.140965,0.0377 -0.211454,0.0567 -0.02822,0.008 -0.05565,0.024 -0.08457,0.0227 -0.02643,-0.002 -0.04956,-0.0181 -0.07472,-0.0253 -0.08723,-0.0251 -0.01036,0.0118 -0.101593,-0.0409 -0.004,-0.002 -0.130604,-0.0721 -0.134126,-0.0774 -0.0079,-0.013 -0.0046,-0.0297 -0.01132,-0.0422 -0.0082,-0.0142 -0.02466,-0.0222 -0.03249,-0.0365 -0.007,-0.0133 -0.0027,-0.0307 -0.01132,-0.0422 -0.01678,-0.0209 -0.04357,-0.031 -0.05925,-0.0522 -0.01743,-0.0233 -0.0072,-0.0601 -0.02269,-0.0847 -0.006,-0.01 -0.02097,-0.007 -0.02685,-0.0155 -0.0079,-0.013 -0.0075,-0.0281 -0.01132,-0.0422 -0.01132,-0.0422 -0.02269,-0.0847 -0.03401,-0.12696 -0.0075,-0.0282 -0.01513,-0.0565 -0.02269,-0.0847 -0.002,-0.008 -0.0082,-0.0142 -0.0057,-0.0212 0.0069,-0.0195 0.02337,-0.0344 0.03092,-0.0536 0.007,-0.0156 0.0033,-0.033 0.0098,-0.0479 0.02061,-0.0472 0.05155,-0.0894 0.07745,-0.13411 0.0155,-0.0268 0.02734,-0.0561 0.04638,-0.0805 0.0099,-0.014 0.02543,-0.0205 0.03655,-0.0325 0.01347,-0.0149 0.06298,-0.0775 0.08877,-0.0918 0.02542,-0.0147 0.05915,-0.008 0.08457,-0.0227 0.01412,-0.009 0.02308,-0.0234 0.03655,-0.0325 0.0064,-0.005 0.124359,-0.0341 0.126833,-0.034 0.01638,1.2e-4 0.03385,0.002 0.04791,0.01 0.04157,0.024 0.05,0.10185 0.06086,0.14246 0.01132,0.0422 0.02269,0.0847 0.03401,0.12695"
       id="path4233"
       inkscape:connector-curvature="0" />
    <path
       style="display:inline;fill:none;fill-rule:evenodd;stroke:#000000;stroke-width:0.08466667;stroke-linecap:round;stroke-linejoin:miter;stroke-miterlimit:4.51000023;stroke-dasharray:none;stroke-opacity:1"
       d="m 88.284496,133.38856 c 0.0307,0.0855 0.0322,0.19864 0.09489,0.26946 0.01312,0.0157 0.0423,0.0139 0.05354,0.031 0.0079,0.013 0.0037,0.0301 0.01132,0.0422 0.01025,0.0174 0.03811,0.0173 0.05354,0.031 0.01173,0.0109 0.01927,0.0267 0.03249,0.0365 6.37e-4,6.8e-4 0.09574,0.0598 0.107263,0.0621 0.006,0.002 0.01399,-0.008 0.02117,-0.005 0.02316,0.005 0.08916,0.0609 0.107262,0.0621 0.0138,8.2e-4 0.02782,-0.012 0.04223,-0.0113 0.01128,3.7e-4 0.01697,0.0123 0.02685,0.0155 0.06534,0.0222 0.0393,-0.001 0.117108,0.0138 0.0095,0.002 0.01611,0.0148 0.02685,0.0155 0.01379,8.2e-4 0.0278,-0.0109 0.04222,-0.0113 0.03488,-0.023 0.04843,0.0239 0.07472,0.0253 0.0138,8.2e-4 0.02782,-0.012 0.04222,-0.0113 0.01128,3.7e-4 0.01611,0.0148 0.02685,0.0155 0.0138,8.2e-4 0.02827,-0.0132 0.04222,-0.0113 0.0201,0.003 0.03334,0.0268 0.05354,0.031 0.01418,0.002 0.02782,-0.012 0.04222,-0.0113 0.01128,3.7e-4 0.01645,0.0161 0.02685,0.0155 0.03663,-0.002 0.07046,-0.0189 0.105637,-0.0282 0.07046,-0.0189 0.140966,-0.0377 0.211476,-0.0567 0.08457,-0.0227 0.169159,-0.0454 0.253738,-0.068 0.02158,-0.005 0.138555,-0.0337 0.148021,-0.0397 0.0096,-0.005 0.0086,-0.019 0.0155,-0.0268 0.01047,-0.0119 0.02585,-0.0206 0.03655,-0.0325 0.0069,-0.008 0.01036,-0.0179 0.0155,-0.0268 0.0195,-0.0339 0.03836,-0.0772 0.06189,-0.10731 0.0099,-0.014 0.0282,-0.0189 0.03655,-0.0325 0.01632,-0.0284 0.0074,-0.0656 0.01954,-0.096 0.007,-0.0191 0.02335,-0.0345 0.03092,-0.0536 0.007,-0.0156 0.0034,-0.0327 0.0098,-0.0479 0.007,-0.0191 0.02673,-0.0335 0.03092,-0.0535 0.02904,-0.14191 -0.06413,0.0658 -0.0015,-0.0904 0.007,-0.0191 0.02332,-0.0346 0.03092,-0.0536 0.007,-0.0156 0.0065,-0.0319 0.0098,-0.0479 0.0035,-0.016 0.01091,-0.0317 0.0098,-0.0479 -0.0014,-0.0218 -0.01132,-0.0422 -0.01702,-0.0635 -0.0038,-0.0141 -0.01187,-0.0279 -0.01132,-0.0422 0.0024,-0.0328 0.01566,-0.0636 0.01954,-0.096 0.0012,-0.009 -0.0049,-0.0141 -0.0057,-0.0212 -0.0025,-0.0299 -0.0025,-0.0601 -0.0015,-0.0904 -0.01203,-0.0411 0.01148,-0.078 0.01389,-0.11708 0.0012,-0.009 -0.0071,-0.0141 -0.0057,-0.0212 -0.0254,-0.0495 0.0334,-0.0659 0.04071,-0.10165 0.0051,-0.0227 0.0057,-0.0461 0.0041,-0.0691 -0.0041,-0.0606 -0.03335,-0.0339 -0.0072,-0.11144 0.0098,-0.0292 0.03658,-0.0512 0.04638,-0.0805 0.0077,-0.0218 0.0012,-0.0461 0.0041,-0.0691 0.0012,-0.0161 0.01014,-0.0316 0.0098,-0.0479 -6.23e-4,-0.0149 -0.01312,-0.0283 -0.01132,-0.0422 0.0098,-0.0479 0.03371,-0.0431 0.04638,-0.0805 0.0049,-0.0149 0.0033,-0.033 0.0098,-0.0479 0.01241,-0.0284 0.03092,-0.0536 0.04638,-0.0805 0.0053,-0.01 0.01225,-0.0169 0.0155,-0.0268 0.02149,-0.0638 -0.0073,-0.0397 0.04071,-0.10165 0.02003,-0.0257 0.05166,-0.0405 0.07326,-0.0649 0.01368,-0.0157 0.01735,-0.0382 0.03091,-0.0536 0.07584,-0.0864 -0.0045,0.0124 0.07889,-0.0438 0.0096,-0.005 0.01036,-0.0179 0.0155,-0.0268 0.01036,-0.0179 0.01554,-0.0399 0.03092,-0.0536 0.0044,-0.004 0.135446,-0.0363 0.148022,-0.0397 0.09162,-0.0245 0.183261,-0.0491 0.274897,-0.0736 0.02117,-0.005 0.04223,-0.0113 0.0634,-0.017 0.01411,-0.003 0.02938,-0.004 0.04223,-0.0113 0.02077,-0.01 0.03756,-0.0272 0.05773,-0.0382 0.007,-0.003 0.01527,-7.1e-4 0.02117,-0.005 0.01353,-0.009 0.02238,-0.0244 0.03655,-0.0325 0.01327,-0.007 0.03008,-0.003 0.04223,-0.0113 0.0096,-0.005 0.0082,-0.0202 0.0155,-0.0268 0.0044,-0.004 0.01538,-7.4e-4 0.02117,-0.005 0.02624,-0.0191 0.04602,-0.047 0.07326,-0.0649 0.01299,-0.008 0.02949,-0.004 0.04222,-0.0113 0.01412,-0.009 0.02308,-0.0234 0.03655,-0.0325 0.0064,-0.005 0.0145,-0.003 0.02118,-0.005 0.02017,-0.011 0.03701,-0.0278 0.05773,-0.0382 0.05571,-0.0271 0.03999,0.008 0.105791,-0.0284 0.0096,-0.005 0.0086,-0.0191 0.0155,-0.0268 0.01047,-0.0119 0.02665,-0.0192 0.03655,-0.0325 0.01296,-0.0156 0.01653,-0.0387 0.03092,-0.0536 0.01607,-0.0164 0.03943,-0.0242 0.05773,-0.0382 0.04306,-0.0323 0.04703,-0.0486 0.08877,-0.0918 0.02261,-0.0236 0.04722,-0.0454 0.07326,-0.0649 0.01839,-0.014 0.04045,-0.0229 0.05773,-0.0382 0.172692,-0.15332 -0.0052,-0.003 0.06756,-0.0862 0.01036,-0.0118 0.02445,-0.0217 0.03655,-0.0325 0.01036,-0.0179 0.01866,-0.0371 0.03091,-0.0536 0.02153,-0.0292 0.05365,-0.0512 0.06756,-0.0862 0.0098,-0.0244 0.01541,-0.0504 0.02521,-0.0748 0.007,-0.0191 0.02069,-0.0357 0.03092,-0.0536 0.0155,-0.0268 0.03092,-0.0536 0.04638,-0.0805 0.01036,-0.0179 0.02332,-0.0346 0.03092,-0.0535 0.007,-0.0156 0.0065,-0.0321 0.0098,-0.0479 0.0035,-0.016 0.0087,-0.0317 0.0098,-0.0479 0.0012,-0.009 -0.0038,-0.0141 -0.0057,-0.0212 -0.0046,-0.0173 -0.02878,-0.091 -0.02833,-0.10579 0.0012,-0.0164 0.0087,-0.0317 0.0098,-0.0479 0.0012,-0.009 -0.0038,-0.0141 -0.0057,-0.0212 -0.0038,-0.0141 -0.0075,-0.0281 -0.01135,-0.0423 -0.01513,-0.0565 -0.03023,-0.11283 -0.04537,-0.16931 -0.01132,-0.0422 -0.02269,-0.0847 -0.03402,-0.12696 -0.0057,-0.0212 -0.0044,-0.0454 -0.01702,-0.0636 -0.006,-0.01 -0.02012,-0.009 -0.02685,-0.0155 -0.0086,-0.0113 -0.0091,-0.05 -0.01702,-0.0635 -0.02728,-0.0412 -0.0717,-0.0592 -0.112909,-0.0831 -0.01433,-0.009 -0.06758,-0.0438 -0.08043,-0.0466 -0.006,-0.002 -0.01411,0.003 -0.02118,0.005 -0.02118,0.005 -0.04153,0.0156 -0.0634,0.017 -0.0162,9.6e-4 -0.03171,-0.009 -0.04791,-0.01 -0.0081,-0.001 -0.01358,0.007 -0.02117,0.005 -0.01607,-2.1e-4 -0.03171,-0.009 -0.04791,-0.01 -0.01244,-10e-4 -0.05379,0.0201 -0.0634,0.017 -0.01952,-0.007 -0.03411,-0.0244 -0.05354,-0.031 -0.004,-0.002 -0.05655,0.0152 -0.0634,0.017 -0.0051,0.001 -0.08063,0.0182 -0.08457,0.0227 -0.0072,0.007 -0.0082,0.0202 -0.0155,0.0268 -0.0171,0.0158 -0.03935,0.0242 -0.05773,0.0382 -0.01333,0.009 -0.02229,0.0247 -0.03655,0.0325 -0.01327,0.007 -0.03108,0.002 -0.04222,0.0113 -0.03096,0.014 -0.02333,0.0599 -0.04638,0.0805 -0.0064,0.005 -0.01527,7e-4 -0.02118,0.005 -0.06982,0.0461 -0.01211,0.0145 -0.05208,0.0592 -0.01036,0.0118 -0.02585,0.0206 -0.03655,0.0325 -0.0069,0.008 -0.04288,0.0703 -0.04638,0.0805 -0.01047,0.031 -0.0131,0.064 -0.01954,0.096 -0.01091,0.0527 -0.02907,0.11065 -0.02371,0.16514 0.0025,0.0218 0.01456,0.0417 0.01702,0.0635 0.0019,0.0232 -0.0057,0.0461 -0.0041,0.0691 6.22e-4,0.0149 0.0075,0.0282 0.01132,0.0422 0.01132,0.0422 0.02269,0.0847 0.03401,0.12696"
       id="path4239"
       inkscape:connector-curvature="0" />
    <path
       style="display:inline;fill:none;fill-rule:evenodd;stroke:#000000;stroke-width:0.08466667;stroke-linecap:round;stroke-linejoin:miter;stroke-miterlimit:4.51000023;stroke-dasharray:none;stroke-opacity:1"
       d="m 109.65899,113.46626 c -4.56687,2.47092 -10.019034,5.26795 -11.068814,12.6241 7.053514,-0.37636 17.588564,-8.47761 22.223024,-10.69578"
       id="path4249"
       inkscape:connector-curvature="0"
       sodipodi:nodetypes="ccc" />
    <path
       style="display:inline;fill:none;fill-rule:evenodd;stroke:#000000;stroke-width:0.08466667;stroke-linecap:round;stroke-linejoin:miter;stroke-miterlimit:4.51000023;stroke-dasharray:none;stroke-opacity:1"
       d="m 111.29422,112.4333 1.41876,-0.83612 c 3.12276,2.37454 5.20618,2.27493 7.98172,2.76304"
       id="path4251"
       inkscape:connector-curvature="0"
       sodipodi:nodetypes="ccc" />
    <path
       style="display:inline;fill:none;fill-rule:evenodd;stroke:#000000;stroke-width:0.08466667;stroke-linecap:round;stroke-linejoin:miter;stroke-miterlimit:4.51000023;stroke-dasharray:none;stroke-opacity:1"
       d="m 108.64438,116.60886 c -1.65733,0.27906 -1.82,3.46475 0.74851,2.79362 2.55996,-0.70315 0.82633,-3.38067 -0.74851,-2.79362 z"
       id="path4253"
       inkscape:connector-curvature="0"
       sodipodi:nodetypes="ccc" />
    <path
       sodipodi:nodetypes="ccc"
       inkscape:connector-curvature="0"
       id="path4257"
       d="m 121.40353,113.82247 c -1.01493,0.17171 -1.11893,2.10672 0.4543,1.69554 1.5678,-0.43141 0.51053,-2.05424 -0.4543,-1.69554 z"
       style="display:inline;fill:none;fill-rule:evenodd;stroke:#000000;stroke-width:0.08466667;stroke-linecap:round;stroke-linejoin:miter;stroke-miterlimit:4.51000023;stroke-dasharray:none;stroke-opacity:1" />
    <path
       style="display:inline;fill:none;fill-rule:evenodd;stroke:#000000;stroke-width:0.08466667;stroke-linecap:round;stroke-linejoin:miter;stroke-miterlimit:4.51000023;stroke-dasharray:none;stroke-opacity:1"
       d="m 167.51859,86.025535 c 0.30703,1.124808 1.00493,2.451792 0.61231,3.21573"
       id="path4259"
       inkscape:connector-curvature="0"
       sodipodi:nodetypes="cc" />
    <path
       style="display:inline;fill:none;fill-rule:evenodd;stroke:#000000;stroke-width:0.08466667;stroke-linecap:round;stroke-linejoin:miter;stroke-miterlimit:4.51000023;stroke-dasharray:none;stroke-opacity:1"
       d="m 133.62516,109.33016 c -3.05962,0.67939 -4.74002,-1.30998 -1.9713,-2.87426 -1.99469,2.64717 0.8994,2.20034 3.38711,1.81437"
       id="path4261"
       inkscape:connector-curvature="0"
       sodipodi:nodetypes="ccc" />
    <path
       sodipodi:nodetypes="ccc"
       inkscape:connector-curvature="0"
       id="path4263"
       d="m 137.70542,106.6263 c -2.63959,0.71071 -4.34825,-1.37475 -2.06308,-2.96308 -0.9348,2.3206 1.3662,2.17361 3.47888,1.90319"
       style="display:inline;fill:none;fill-rule:evenodd;stroke:#000000;stroke-width:0.08466667;stroke-linecap:round;stroke-linejoin:miter;stroke-miterlimit:4.51000023;stroke-dasharray:none;stroke-opacity:1" />
    <path
       style="display:inline;fill:none;fill-rule:evenodd;stroke:#000000;stroke-width:0.08466667;stroke-linecap:round;stroke-linejoin:miter;stroke-miterlimit:4.51000023;stroke-dasharray:none;stroke-opacity:1"
       d="m 141.22656,104.45787 c -1.62158,0.70302 -3.87045,-1.39792 -1.72061,-3.1229 -0.26366,1.9929 1.57998,2.07134 3.47888,1.9032"
       id="path4265"
       inkscape:connector-curvature="0"
       sodipodi:nodetypes="ccc" />
    <path
       style="display:inline;fill:none;fill-rule:evenodd;stroke:#000000;stroke-width:0.08466667;stroke-linecap:round;stroke-linejoin:miter;stroke-miterlimit:4.51000023;stroke-dasharray:none;stroke-opacity:1"
       d="m 108.04894,119.2686 1.79039,-2.45319"
       id="path4267"
       inkscape:connector-curvature="0" />
    <path
       style="display:inline;fill:none;fill-rule:evenodd;stroke:#000000;stroke-width:0.08466667;stroke-linecap:round;stroke-linejoin:miter;stroke-miterlimit:4.51000023;stroke-dasharray:none;stroke-opacity:1"
       d="m 121.24532,113.90688 0.82874,1.4781"
       id="path4269"
       inkscape:connector-curvature="0" />
    <path
       style="display:inline;fill:none;fill-rule:evenodd;stroke:#000000;stroke-width:0.08466667;stroke-linecap:round;stroke-linejoin:miter;stroke-miterlimit:4.51000023;stroke-dasharray:none;stroke-opacity:1"
       d="m 173.08321,86.91616 c 0.31674,0.43993 0.75765,0.688571 0.6723,1.747927"
       id="path4271"
       inkscape:connector-curvature="0"
       sodipodi:nodetypes="cc" />
    <path
       style="display:inline;fill:none;fill-rule:evenodd;stroke:#000000;stroke-width:0.08466667;stroke-linecap:round;stroke-linejoin:miter;stroke-miterlimit:4.51000023;stroke-dasharray:none;stroke-opacity:1"
       d="m 162.42762,92.062489 c 0.38796,0.579247 0.47272,1.110609 0.29279,1.600102"
       id="path4273"
       inkscape:connector-curvature="0"
       sodipodi:nodetypes="cc" />
    <path
       style="display:inline;fill:none;fill-rule:evenodd;stroke:#000000;stroke-width:0.08466667;stroke-linecap:round;stroke-linejoin:miter;stroke-miterlimit:4.51000023;stroke-dasharray:none;stroke-opacity:1"
       d="m 86.449858,137.69844 c 0.01451,-0.0118 0.037,-0.004 0.0524,-0.0141 0.01686,-0.01 0.03131,-0.0239 0.04626,-0.0365 0.09016,-0.0761 0.04626,-0.0432 0.140432,-0.13382 0.03568,-0.0345 0.07273,-0.0677 0.109077,-0.10142 0.03629,-0.0339 0.06912,-0.0721 0.109079,-0.10143 0.04088,-0.03 0.08797,-0.0503 0.131996,-0.0756 0.0439,-0.0254 0.08526,-0.0558 0.131997,-0.0756 0.04051,-0.0165 0.08478,-0.0227 0.127124,-0.034 0.04233,-0.0113 0.08478,-0.0227 0.127112,-0.034 0.05125,-0.0137 0.127258,-0.0398 0.183429,-0.0332 0.03351,0.004 0.06415,0.0203 0.09618,0.0302 0.03208,0.01 0.06639,0.0149 0.09618,0.0302 0.03898,0.0202 0.07132,0.0516 0.108233,0.0752 0.02767,0.0178 0.0587,0.0302 0.08527,0.0493 0.06061,0.0436 0.151425,0.1318 0.194738,0.1884 0.02776,0.0363 0.04762,0.0781 0.07155,0.11722 0.02414,0.039 0.05104,0.0763 0.07155,0.11721 0.04583,0.0914 0.05689,0.15257 0.08311,0.2504 0.01137,0.0424 0.02803,0.084 0.03409,0.12725 0.012,0.10371 -0.01104,0.18296 -0.0365,0.28246 -0.02612,0.10218 -0.04041,0.15796 -0.09339,0.24957 -0.04633,0.0803 -0.09322,0.11937 -0.158272,0.18683 -0.03142,0.0326 -0.06189,0.0658 -0.09411,0.0974 -0.03553,0.0347 -0.07275,0.0676 -0.109106,0.1012 -0.07576,0.0709 -0.09112,0.0955 -0.18529,0.14585 -0.141251,0.0756 -0.07289,0.0193 -0.220271,0.075 -0.110396,0.0417 -0.0979,0.0697 -0.218249,0.0827 -0.09849,0.0109 -0.202352,-0.0132 -0.297211,-0.0327 -0.175654,-0.036 -0.125242,-0.0251 -0.298301,-0.0965"
       id="path4313"
       inkscape:connector-curvature="0" />
    <path
       style="display:inline;fill:none;fill-rule:evenodd;stroke:#000000;stroke-width:0.08466667;stroke-linecap:round;stroke-linejoin:miter;stroke-miterlimit:4.51000023;stroke-dasharray:none;stroke-opacity:1"
       d="m 93.020094,141.73731 c -0.04598,0.0128 -0.09156,0.0247 -0.138838,0.0315 -0.02223,0.002 -0.04421,0.004 -0.06623,0.007 -0.176718,0.0193 0.0195,-7.1e-4 -0.148413,0.017 -0.06083,0.005 -0.08659,0.008 -0.149803,0.0118 -0.02445,9e-4 -0.04864,0.004 -0.07309,0.002 -0.03406,-0.002 -0.10627,-0.0119 -0.141002,-0.0189 -0.02637,-0.005 -0.05237,-0.0124 -0.07873,-0.0187 -0.02624,-0.007 -0.05237,-0.0124 -0.07872,-0.0187 -0.02624,-0.007 -0.05335,-0.01 -0.07873,-0.0186 -0.01714,-0.007 -0.03131,-0.018 -0.04698,-0.0272 -0.07841,-0.0453 -0.04171,-0.0207 -0.110088,-0.0725 -0.06877,-0.052 -0.03449,-0.0238 -0.102323,-0.0859 -0.03336,-0.0307 -0.07089,-0.0628 -0.09997,-0.0979 -0.04856,-0.0588 -0.05673,-0.0847 -0.09818,-0.15516 -0.03283,-0.0557 -0.0673,-0.11047 -0.101015,-0.16574 -0.01637,-0.0278 -0.03322,-0.0555 -0.05043,-0.0828 -0.01543,-0.0243 -0.03361,-0.047 -0.04771,-0.0722 -0.02863,-0.0504 -0.03024,-0.0711 -0.04445,-0.12418 -0.0052,-0.0195 -0.01036,-0.0386 -0.0156,-0.0582 -0.0052,-0.0195 -0.01036,-0.0386 -0.01561,-0.0582 -0.0052,-0.0195 -0.01358,-0.0381 -0.01561,-0.0582 -0.01047,-0.0808 -0.0019,-0.0752 0.02654,-0.15455 0.0096,-0.0272 0.0181,-0.0549 0.0292,-0.0816 0.012,-0.0287 0.02653,-0.0563 0.0398,-0.0843 0.03732,-0.0794 0.04301,-0.10262 0.100567,-0.1744 0.04892,-0.0611 0.07872,-0.0764 0.135904,-0.1272 0.02033,-0.0175 0.03607,-0.0409 0.05885,-0.0555 0.07569,-0.0487 0.06392,-0.018 0.134604,-0.0473 0.007,-0.003 0.01036,-0.0118 0.01816,-0.0169 0.01014,-0.004 0.02117,-0.005 0.03176,-0.009 0.01266,-0.003 0.02469,-0.007 0.03704,-0.01"
       id="path4323"
       inkscape:connector-curvature="0" />
    <path
       style="display:inline;fill:none;fill-rule:evenodd;stroke:#000000;stroke-width:0.08466667;stroke-linecap:round;stroke-linejoin:miter;stroke-miterlimit:4.51000023;stroke-dasharray:none;stroke-opacity:1"
       d="m 92.787908,143.90355 c -0.0353,0.043 -0.0043,0.0132 -0.05373,0.0386 -0.01181,0.007 -0.02335,0.0142 -0.03444,0.0213 -0.01135,0.009 -0.0206,0.0206 -0.03246,0.0287 -0.01629,0.0122 -0.03405,0.0228 -0.05105,0.0337 -0.01726,0.01 -0.03405,0.0228 -0.05105,0.0337 -0.03112,0.0204 -0.08451,0.0573 -0.117075,0.0715 -0.01762,0.008 -0.03746,0.01 -0.05604,0.0151 -0.04493,0.012 -0.08965,0.024 -0.134605,0.0361 -0.0499,0.0134 -0.09972,0.0267 -0.149516,0.04 -0.06101,0.0164 -0.117799,0.0349 -0.181408,0.0407 -0.04053,0.005 -0.08198,0.002 -0.122822,0.005 -0.04037,0.003 -0.08053,0.01 -0.120809,0.0124 -0.05471,0.003 -0.173498,0.007 -0.230808,0.005 -0.03925,-7.7e-4 -0.07827,-0.004 -0.117334,-0.004 -0.03308,-1.7e-4 -0.06581,0.007 -0.09849,0.007 -0.03173,-5.3e-4 -0.06335,-0.007 -0.09503,-0.0109 -0.03543,-0.005 -0.117,-0.0214 -0.152613,-0.0311 -0.02521,-0.007 -0.04954,-0.0165 -0.07465,-0.0241 -0.0373,-0.0113 -0.08672,-0.0227 -0.122696,-0.0393 -0.01826,-0.009 -0.03532,-0.0193 -0.05209,-0.0301 -0.03882,-0.025 -0.05989,-0.0409 -0.08582,-0.0813 -0.0187,-0.028 -0.02485,-0.0637 -0.03332,-0.0953 -0.0044,-0.0164 -0.0086,-0.0324 -0.01304,-0.0486 -0.0044,-0.0164 -0.01194,-0.0319 -0.01304,-0.0486 -0.0027,-0.0435 0.01201,-0.0714 0.02636,-0.11127 0.01289,-0.0358 0.02827,-0.0851 0.04866,-0.11726 0.01595,-0.0252 0.07842,-0.0942 0.09759,-0.11432 0.01951,-0.0206 0.03885,-0.0413 0.06008,-0.0601 0.04674,-0.0414 0.08865,-0.0685 0.140995,-0.10175 0.02628,-0.016 0.05124,-0.0354 0.07903,-0.0492 0.04594,-0.0237 0.10579,-0.0363 0.155021,-0.0494 0.02376,-0.007 0.04732,-0.0126 0.07108,-0.0191 0.02376,-0.007 0.04732,-0.0127 0.07108,-0.0191 0.02117,-0.005 0.04152,-0.0156 0.06361,-0.017 0.02036,-0.002 0.04087,0.002 0.06104,0.003 0.02009,2.6e-4 0.04087,0.002 0.06104,0.003"
       id="path4333"
       inkscape:connector-curvature="0" />
    <path
       style="display:inline;fill:none;fill-rule:evenodd;stroke:#000000;stroke-width:0.08466667;stroke-linecap:round;stroke-linejoin:miter;stroke-miterlimit:4.51000023;stroke-dasharray:none;stroke-opacity:1"
       d="m 85.322906,140.81938 c 0.02096,-0.0135 0.03299,-0.0209 0.05373,-0.0386 0.01558,-0.0132 0.02973,-0.0273 0.04541,-0.0401 0.01814,-0.0161 0.03814,-0.0282 0.05661,-0.0432 0.02105,-0.0169 0.04042,-0.0363 0.06207,-0.0527 0.0272,-0.0209 0.05623,-0.0393 0.08449,-0.0587 0.02821,-0.0196 0.0555,-0.0402 0.08449,-0.0587 0.05787,-0.0372 0.118788,-0.0708 0.182323,-0.0971 0.07262,-0.0308 0.11751,-0.0394 0.192399,-0.0594 0.06734,-0.018 0.176454,-0.0484 0.241207,-0.0567 0.09182,-0.0109 0.207553,-8.5e-4 0.298661,0.008 0.15615,0.0157 0.134989,0.0151 0.276782,0.0461 0.119995,0.0263 0.122227,0.0217 0.233955,0.0657 0.06108,0.0242 0.117819,0.0488 0.168701,0.0912 0.01937,0.0158 0.03569,0.0348 0.05066,0.0546 0.01383,0.0183 0.02409,0.0388 0.03572,0.0587 0.01362,0.0217 0.02687,0.0431 0.03773,0.0661 0.02487,0.0512 0.03075,0.0857 0.04536,0.14021 0.01772,0.0662 0.02622,0.0772 0.01942,0.14718 -0.0023,0.0245 -0.0099,0.0487 -0.01658,0.0726 -0.0069,0.0252 -0.01465,0.0504 -0.02405,0.0746 -0.01444,0.0374 -0.04263,0.0879 -0.0636,0.12126 -0.01353,0.0217 -0.02612,0.0445 -0.043,0.0637 -0.01253,0.0146 -0.09268,0.0749 -0.105627,0.0843 -0.05399,0.0396 -0.07115,0.052 -0.130022,0.083 -0.02895,0.0157 -0.05772,0.0319 -0.08849,0.0437 -0.02769,0.0109 -0.05738,0.0154 -0.08603,0.023 -0.02864,0.008 -0.05738,0.0154 -0.08603,0.023 -0.02864,0.008 -0.05663,0.0185 -0.08603,0.023 -0.0299,0.004 -0.06081,0.002 -0.09101,0.004"
       id="path4351"
       inkscape:connector-curvature="0" />
    <path
       style="display:inline;fill:none;fill-rule:evenodd;stroke:#000000;stroke-width:0.08466667;stroke-linecap:round;stroke-linejoin:miter;stroke-miterlimit:4.51000023;stroke-dasharray:none;stroke-opacity:1"
       d="m 84.452199,143.48881 c 0.01298,-0.0454 0.0017,-0.0185 0.02957,-0.059 0.0113,-0.0152 0.01937,-0.034 0.0324,-0.0484 0.0117,-0.0144 0.02876,-0.0214 0.04196,-0.0339 0.01867,-0.0171 0.03482,-0.0369 0.05347,-0.0541 0.03719,-0.0339 0.134171,-0.11024 0.167614,-0.13569 0.09136,-0.0695 0.118402,-0.094 0.223334,-0.13921 0.0417,-0.0191 0.08678,-0.0289 0.129136,-0.0467 0.205435,-0.0777 0.04866,-0.0301 0.260059,-0.0867 0.04058,-0.0109 0.08022,-0.0261 0.121583,-0.0326 0.04232,-0.007 0.08574,-0.007 0.128656,-0.007 0.04049,4.3e-4 0.08101,0.001 0.120954,0.008 0.07153,0.0109 0.179165,0.0407 0.245463,0.0703 0.03061,0.0138 0.06056,0.0301 0.08722,0.0504 0.02684,0.0205 0.08301,0.0906 0.100262,0.12058 0.04476,0.0774 0.01682,0.0586 0.05012,0.14535 0.07749,0.20497 0.0022,-0.0553 0.05841,0.15448 0.0061,0.023 0.01228,0.0458 0.01843,0.0688 0.0052,0.0195 0.01927,0.0386 0.0156,0.0582 -0.0062,0.0279 -0.02845,0.0491 -0.04261,0.0738 -0.0141,0.0245 -0.02458,0.0519 -0.0426,0.0738 -0.05752,0.07 -0.142258,0.11535 -0.217661,0.16039 -0.04342,0.0267 -0.08852,0.0503 -0.132794,0.0754"
       id="path4377"
       inkscape:connector-curvature="0" />
    <path
       sodipodi:nodetypes="cc"
       inkscape:connector-curvature="0"
       id="path4394"
       d="m 168.40846,85.578564 c 0.30702,1.12481 1.00493,2.451789 0.61231,3.215738"
       style="display:inline;fill:none;fill-rule:evenodd;stroke:#000000;stroke-width:0.08466667;stroke-linecap:round;stroke-linejoin:miter;stroke-miterlimit:4.51000023;stroke-dasharray:none;stroke-opacity:1" />
    <path
       style="display:inline;fill:none;fill-rule:evenodd;stroke:#000000;stroke-width:0.08466667;stroke-linecap:round;stroke-linejoin:miter;stroke-miterlimit:4.51000023;stroke-dasharray:none;stroke-opacity:1"
       d="m 111.48958,104.28018 c 0.43939,0.0996 0.6513,0.32764 1.23306,0.0722"
       id="path4396"
       inkscape:connector-curvature="0"
       sodipodi:nodetypes="cc" />
    <path
       style="display:inline;fill:none;fill-rule:evenodd;stroke:#000000;stroke-width:0.08466667;stroke-linecap:round;stroke-linejoin:miter;stroke-miterlimit:4.51000023;stroke-dasharray:none;stroke-opacity:1"
       d="m 115.62694,109.44572 c -2.68576,-0.48438 -4.09398,-3.20687 -6.34912,-2.16419"
       id="path4398"
       inkscape:connector-curvature="0"
       sodipodi:nodetypes="cc" />
  </g>
</svg>
