<?xml version="1.0" encoding="UTF-8" standalone="no"?>
<!-- Created with Inkscape (http://www.inkscape.org/) -->

<svg
   xmlns:dc="http://purl.org/dc/elements/1.1/"
   xmlns:cc="http://creativecommons.org/ns#"
   xmlns:rdf="http://www.w3.org/1999/02/22-rdf-syntax-ns#"
   xmlns:svg="http://www.w3.org/2000/svg"
   xmlns="http://www.w3.org/2000/svg"
   xmlns:sodipodi="http://sodipodi.sourceforge.net/DTD/sodipodi-0.dtd"
   xmlns:inkscape="http://www.inkscape.org/namespaces/inkscape"
   width="104.13245mm"
   height="104.13245mm"
   viewBox="0 0 104.13245 104.13245"
   version="1.1"
   id="svg3751"
   inkscape:version="0.92.4 (5da689c313, 2019-01-14)"
   sodipodi:docname="turkish.svg">
  <defs
     id="defs3745" />
  <sodipodi:namedview
     id="base"
     pagecolor="#ffffff"
     bordercolor="#666666"
     borderopacity="1.0"
     inkscape:pageopacity="0.0"
     inkscape:pageshadow="2"
     inkscape:zoom="0.98994949"
     inkscape:cx="-23.54226"
     inkscape:cy="145.81885"
     inkscape:document-units="mm"
     inkscape:current-layer="layer1"
     showgrid="false"
     inkscape:window-width="1920"
     inkscape:window-height="1052"
     inkscape:window-x="0"
     inkscape:window-y="1080"
     inkscape:window-maximized="1" />
  <metadata
     id="metadata3748">
    <rdf:RDF>
      <cc:Work
         rdf:about="">
        <dc:format>image/svg+xml</dc:format>
        <dc:type
           rdf:resource="http://purl.org/dc/dcmitype/StillImage" />
        <dc:title></dc:title>
      </cc:Work>
    </rdf:RDF>
  </metadata>
  <g
     inkscape:label="Layer 1"
     inkscape:groupmode="layer"
     id="layer1"
     transform="translate(-77.201637,-64.261154)">
    <path
       style="fill:none;fill-rule:evenodd;stroke:#000000;stroke-width:0.28222221;stroke-linecap:butt;stroke-linejoin:miter;stroke-miterlimit:7.0999999;stroke-dasharray:none;stroke-opacity:1"
       d="M 132.84225,116.93069 C 108.0438,113.42967 92.010995,101.88717 81.909751,84.903093 86.345514,112.93139 107.55591,120.9817 129.87579,127.71068"
       id="path4346"
       inkscape:connector-curvature="0"
       sodipodi:nodetypes="ccc" />
    <path
       style="fill:none;fill-rule:evenodd;stroke:#000000;stroke-width:0.28222221px;stroke-linecap:butt;stroke-linejoin:miter;stroke-opacity:1"
       d="m 134.17623,129.86936 c 4.05199,0.75996 25.6976,3.7405 21.54787,11.33922 -1.01823,2.12365 -2.05465,3.04652 -3.1043,3.09405 1.83804,3.14808 2.11857,7.32524 5.54037,9.42688 4.95059,-0.59584 8.69039,-6.87179 8.63981,-9.83586 -2.21478,-19.32833 -19.72922,-20.41627 -29.35843,-25.66225 -0.12878,-2.48592 -1.97741,-4.69274 -3.83929,-2.68265 -1.51525,2.06995 -1.0928,4.86288 -0.72488,7.63546 -1.19996,1.98588 -3.22431,3.15141 -3.2136,6.342 -0.0957,1.68355 1.50482,3.75733 4.51245,0.34315 z"
       id="path4348"
       inkscape:connector-curvature="0"
       sodipodi:nodetypes="cccccccccc" />
    <path
       style="fill:none;fill-rule:evenodd;stroke:#000000;stroke-width:0.28222221;stroke-linecap:butt;stroke-linejoin:miter;stroke-miterlimit:5.19999981;stroke-dasharray:none;stroke-opacity:1"
       d="m 119.69402,88.907165 c 29.5509,7.345924 48.76897,19.256545 54.30718,42.107165 2.26243,0.53056 1.06721,4.4069 1.59349,6.60833 -1.48908,-1.99315 -5.70302,-3.93095 -4.26864,-6.01441 -10.99182,-17.53543 -29.66019,-26.59939 -54.45241,-28.90533 1.03105,-2.37833 0.67017,-4.921314 0.0928,-7.489907 1.68002,-1.746746 2.62882,-3.818266 2.72755,-6.305848 z"
       id="path4382"
       inkscape:connector-curvature="0"
       sodipodi:nodetypes="ccccccc" />
    <path
       style="fill:none;fill-rule:evenodd;stroke:#000000;stroke-width:0.08466666;stroke-linecap:butt;stroke-linejoin:miter;stroke-miterlimit:4;stroke-dasharray:none;stroke-opacity:1"
       d="M 83.603959,87.416902 C 87.594785,109.49661 106.35583,119.3479 126.15458,124.67228"
       id="path4350"
       inkscape:connector-curvature="0"
       sodipodi:nodetypes="cc" />
    <path
       sodipodi:nodetypes="ccccccccc"
       inkscape:connector-curvature="0"
       id="path4354"
       d="m 138.5246,130.56526 c 0.0325,-0.1894 0.0418,-0.38557 -0.14217,-0.63793 0.75496,-0.31478 2.02021,-0.60118 1.97405,-1.55116 0.55117,-0.17662 0.65528,-0.66254 0.82685,-1.10178 0.11276,-0.70507 0.65165,-1.25477 1.26477,-1.37213 -0.39627,-0.41102 -0.55636,-1.16406 -0.27337,-1.81962 0.0906,-0.46277 0.26347,-0.92869 -0.10702,-1.37343 0.5484,-0.77701 -0.38963,-1.39852 -0.85801,-2.06916 0.29063,-0.11433 0.38798,-0.28486 0.4621,-0.46216"
       style="fill:none;fill-rule:evenodd;stroke:#000000;stroke-width:0.08466666;stroke-linecap:butt;stroke-linejoin:miter;stroke-miterlimit:4;stroke-dasharray:none;stroke-opacity:1" />
    <path
       style="fill:none;fill-rule:evenodd;stroke:#000000;stroke-width:0.08466666;stroke-linecap:butt;stroke-linejoin:miter;stroke-miterlimit:4;stroke-dasharray:none;stroke-opacity:1"
       d="m 136.64431,118.41636 c -1.28185,0.25462 -2.3326,-0.18816 -3.15547,-1.31867 -0.57111,2.09563 -0.28828,4.22752 0.0627,6.30372 -1.77514,1.81671 -2.66203,3.26065 -3.07436,4.63185 1.65103,-0.31565 2.51999,0.55253 3.0259,1.11225"
       id="path4356"
       inkscape:connector-curvature="0"
       sodipodi:nodetypes="ccccc" />
    <path
       style="fill:none;fill-rule:evenodd;stroke:#000000;stroke-width:0.08466666;stroke-linecap:butt;stroke-linejoin:miter;stroke-miterlimit:4;stroke-dasharray:none;stroke-opacity:1"
       d="m 142.34485,120.4121 c 2.94303,3.15304 3.11592,13.45783 8.8897,9.49776"
       id="path4358"
       inkscape:connector-curvature="0"
       sodipodi:nodetypes="cc" />
    <path
       style="fill:none;fill-rule:evenodd;stroke:#000000;stroke-width:0.08466666;stroke-linecap:butt;stroke-linejoin:miter;stroke-miterlimit:4;stroke-dasharray:none;stroke-opacity:1"
       d="m 138.93517,130.7178 c 4.67155,-0.90696 10.73663,-11.12831 14.05391,-2.74353"
       id="path4360"
       inkscape:connector-curvature="0"
       sodipodi:nodetypes="cc" />
    <path
       style="fill:none;fill-rule:evenodd;stroke:#000000;stroke-width:0.08466666;stroke-linecap:butt;stroke-linejoin:miter;stroke-miterlimit:4;stroke-dasharray:none;stroke-opacity:1"
       d="m 152.85199,124.67092 c 4.88735,4.84984 1.32644,8.90754 4.19534,12.61027"
       id="path4362"
       inkscape:connector-curvature="0"
       sodipodi:nodetypes="cc" />
    <path
       style="fill:none;fill-rule:evenodd;stroke:#000000;stroke-width:0.08466666;stroke-linecap:butt;stroke-linejoin:miter;stroke-miterlimit:4;stroke-dasharray:none;stroke-opacity:1"
       d="m 149.59741,133.48989 c 4.5714,0.64899 9.04948,-4.32457 11.68692,-1.07182"
       id="path4364"
       inkscape:connector-curvature="0"
       sodipodi:nodetypes="cc" />
    <path
       style="fill:none;fill-rule:evenodd;stroke:#000000;stroke-width:0.08466666;stroke-linecap:butt;stroke-linejoin:miter;stroke-miterlimit:4;stroke-dasharray:none;stroke-opacity:1"
       d="m 162.79681,132.79478 c -1.58881,3.32252 -4.12033,4.57756 -6.53284,6.09355"
       id="path4366"
       inkscape:connector-curvature="0"
       sodipodi:nodetypes="cc" />
    <path
       sodipodi:nodetypes="cc"
       inkscape:connector-curvature="0"
       id="path4368"
       d="m 163.26335,133.36437 c -1.58882,3.32251 -4.53392,4.80379 -6.94643,6.31978"
       style="fill:none;fill-rule:evenodd;stroke:#000000;stroke-width:0.08466666;stroke-linecap:butt;stroke-linejoin:miter;stroke-miterlimit:4;stroke-dasharray:none;stroke-opacity:1" />
    <path
       style="fill:none;fill-rule:evenodd;stroke:#000000;stroke-width:0.08466666;stroke-linecap:butt;stroke-linejoin:miter;stroke-miterlimit:4;stroke-dasharray:none;stroke-opacity:1"
       d="m 157.81615,138.77878 c 0.0323,4.59993 -2.04002,6.37234 -4.19611,7.67551"
       id="path4370"
       inkscape:connector-curvature="0"
       sodipodi:nodetypes="cc" />
    <path
       style="fill:none;fill-rule:evenodd;stroke:#000000;stroke-width:0.08466666;stroke-linecap:butt;stroke-linejoin:miter;stroke-miterlimit:4;stroke-dasharray:none;stroke-opacity:1"
       d="m 157.51476,141.72372 c 2.79552,1.02472 5.7434,1.81918 8.95246,0.47022"
       id="path4372"
       inkscape:connector-curvature="0"
       sodipodi:nodetypes="cc" />
    <path
       sodipodi:nodetypes="cc"
       inkscape:connector-curvature="0"
       id="path4374"
       d="m 157.30132,142.38006 c 2.79553,1.02472 6.07556,1.80383 9.28462,0.45499"
       style="fill:none;fill-rule:evenodd;stroke:#000000;stroke-width:0.08466666;stroke-linecap:butt;stroke-linejoin:miter;stroke-miterlimit:4;stroke-dasharray:none;stroke-opacity:1" />
    <path
       style="fill:none;fill-rule:evenodd;stroke:#000000;stroke-width:0.08466666;stroke-linecap:butt;stroke-linejoin:miter;stroke-miterlimit:4;stroke-dasharray:none;stroke-opacity:1"
       d="m 137.24806,125.06563 c 0.26773,0.62937 0.66947,1.04909 1.30101,1.10927 -0.11568,-0.88609 1.07371,-0.87546 1.9278,-0.84117 -1.05106,-0.84641 -1.97481,-2.16761 -3.58552,-0.83421 l -3.34471,-1.0995"
       id="path4376"
       inkscape:connector-curvature="0"
       sodipodi:nodetypes="ccccc" />
    <path
       sodipodi:nodetypes="cccc"
       inkscape:connector-curvature="0"
       id="path4378"
       d="m 134.96636,121.91043 c 0.45766,0.50787 0.97397,0.77392 1.59087,0.6252 -0.39724,-0.80008 0.73118,-1.17725 1.55016,-1.42288 -1.26908,-0.45806 -2.57199,-1.40644 -3.66232,0.37858 l -1.13614,0.16886"
       style="fill:none;fill-rule:evenodd;stroke:#000000;stroke-width:0.08466666;stroke-linecap:butt;stroke-linejoin:miter;stroke-miterlimit:4;stroke-dasharray:none;stroke-opacity:1" />
    <path
       style="fill:none;fill-rule:evenodd;stroke:#000000;stroke-width:0.08466666;stroke-linecap:butt;stroke-linejoin:miter;stroke-miterlimit:4;stroke-dasharray:none;stroke-opacity:1"
       d="m 133.16178,125.91264 c -0.0387,0.68314 0.13554,1.23774 0.67489,1.57188 0.28861,-0.84587 1.34978,-0.30871 2.1,0.101 -0.56725,-1.22529 -0.81026,-2.81984 -2.84397,-2.33875 l -0.69954,-0.43754"
       id="path4380"
       inkscape:connector-curvature="0"
       sodipodi:nodetypes="cccc" />
    <path
       style="fill:none;fill-rule:evenodd;stroke:#000000;stroke-width:0.08466666;stroke-linecap:butt;stroke-linejoin:miter;stroke-miterlimit:4;stroke-dasharray:none;stroke-opacity:1"
       d="m 173.96484,131.10009 -2.6344,0.52815"
       id="path4384"
       inkscape:connector-curvature="0"
       sodipodi:nodetypes="cc" />
    <path
       style="fill:none;fill-rule:evenodd;stroke:#000000;stroke-width:0.08466666;stroke-linecap:butt;stroke-linejoin:miter;stroke-miterlimit:4;stroke-dasharray:none;stroke-opacity:1"
       d="m 175.0073,131.76978 -3.9099,0.94074"
       id="path4386"
       inkscape:connector-curvature="0"
       sodipodi:nodetypes="cc" />
    <path
       style="fill:none;fill-rule:evenodd;stroke:#000000;stroke-width:0.08466666;stroke-linecap:butt;stroke-linejoin:miter;stroke-miterlimit:4;stroke-dasharray:none;stroke-opacity:1"
       d="m 123.94157,103.44913 c 0.0386,-0.22554 0.0496,-0.45913 -0.16999,-0.75979 0.90033,-0.37438 2.40939,-0.71463 2.3537,-1.84595 0.65736,-0.20996 0.78123,-0.78857 0.98563,-1.311529 0.13395,-0.839602 0.7765,-1.493843 1.50779,-1.633231 -0.47294,-0.489697 -0.66439,-1.38655 -0.32723,-2.167045 0.10793,-0.551014 0.31385,-1.105747 -0.12853,-1.635639 0.65367,-0.924962 -0.46562,-1.66567 -1.02476,-2.464601 0.34661,-0.135955 0.46262,-0.338978 0.55092,-0.550073"
       id="path4388"
       inkscape:connector-curvature="0"
       sodipodi:nodetypes="ccccccccc" />
    <path
       style="fill:none;fill-rule:evenodd;stroke:#000000;stroke-width:0.08466666;stroke-linecap:butt;stroke-linejoin:miter;stroke-miterlimit:4;stroke-dasharray:none;stroke-opacity:1"
       d="m 124.48034,103.69272 c 5.27304,-1.7958 10.7907,-15.61914 15.79991,-4.441985"
       id="path4390"
       inkscape:connector-curvature="0"
       sodipodi:nodetypes="cc" />
    <path
       style="fill:none;fill-rule:evenodd;stroke:#000000;stroke-width:0.08466666;stroke-linecap:butt;stroke-linejoin:miter;stroke-miterlimit:4;stroke-dasharray:none;stroke-opacity:1"
       d="m 128.05654,91.190687 c 3.31087,4.182586 0.60661,13.456783 10.76638,11.842003"
       id="path4392"
       inkscape:connector-curvature="0"
       sodipodi:nodetypes="cc" />
    <path
       style="fill:none;fill-rule:evenodd;stroke:#000000;stroke-width:0.08466666;stroke-linecap:butt;stroke-linejoin:miter;stroke-miterlimit:4;stroke-dasharray:none;stroke-opacity:1"
       d="m 139.72237,95.330007 c 5.72634,4.924393 2.45909,13.040063 7.0603,12.702793"
       id="path4394"
       inkscape:connector-curvature="0"
       sodipodi:nodetypes="cc" />
    <path
       style="fill:none;fill-rule:evenodd;stroke:#000000;stroke-width:0.08466666;stroke-linecap:butt;stroke-linejoin:miter;stroke-miterlimit:4;stroke-dasharray:none;stroke-opacity:1"
       d="m 133.65057,105.55496 c 7.80798,1.95966 15.46924,-10.450053 17.72804,-1.85271"
       id="path4396"
       inkscape:connector-curvature="0"
       sodipodi:nodetypes="cc" />
    <path
       style="fill:none;fill-rule:evenodd;stroke:#000000;stroke-width:0.08466666;stroke-linecap:butt;stroke-linejoin:miter;stroke-miterlimit:4;stroke-dasharray:none;stroke-opacity:1"
       d="m 151.95206,101.42309 c 4.24441,6.2015 -1.64563,15.1812 8.49071,12.70129"
       id="path4398"
       inkscape:connector-curvature="0"
       sodipodi:nodetypes="cc" />
    <path
       style="fill:none;fill-rule:evenodd;stroke:#000000;stroke-width:0.08466666;stroke-linecap:butt;stroke-linejoin:miter;stroke-miterlimit:4;stroke-dasharray:none;stroke-opacity:1"
       d="m 144.24277,109.08368 c 9.07509,2.50528 15.07137,-6.60093 16.50434,2.35515"
       id="path4400"
       inkscape:connector-curvature="0"
       sodipodi:nodetypes="cc" />
    <path
       style="fill:none;fill-rule:evenodd;stroke:#000000;stroke-width:0.08466666;stroke-linecap:butt;stroke-linejoin:miter;stroke-miterlimit:4;stroke-dasharray:none;stroke-opacity:1"
       d="m 154.85731,114.71054 c 5.49754,2.24219 6.66783,-2.04384 12.21964,0.77699"
       id="path4402"
       inkscape:connector-curvature="0"
       sodipodi:nodetypes="cc" />
    <path
       style="fill:none;fill-rule:evenodd;stroke:#000000;stroke-width:0.08466666;stroke-linecap:butt;stroke-linejoin:miter;stroke-miterlimit:4;stroke-dasharray:none;stroke-opacity:1"
       d="m 160.72449,108.13614 c 2.7843,4.62376 -0.21957,7.98882 0.63507,11.59432"
       id="path4404"
       inkscape:connector-curvature="0"
       sodipodi:nodetypes="cc" />
    <path
       sodipodi:nodetypes="ccccc"
       inkscape:connector-curvature="0"
       id="path4378-3"
       d="m 167.1349,120.60339 c -0.5998,0.32838 -1.17506,0.40917 -1.70824,0.0653 0.6393,-0.62417 -0.30124,-1.35249 -0.99317,-1.85456 1.34924,-0.0136 2.89242,-0.47899 3.3319,1.56568 0.96747,0.78843 1.6046,1.72683 2.26146,2.65628"
       style="fill:none;fill-rule:evenodd;stroke:#000000;stroke-width:0.08466666;stroke-linecap:butt;stroke-linejoin:miter;stroke-miterlimit:4;stroke-dasharray:none;stroke-opacity:1" />
    <path
       style="fill:none;fill-rule:evenodd;stroke:#000000;stroke-width:0.08466666;stroke-linecap:butt;stroke-linejoin:miter;stroke-miterlimit:4;stroke-dasharray:none;stroke-opacity:1"
       d="m 170.05011,126.17077 c -0.67458,0.1104 -1.24385,-0.004 -1.63258,-0.50631 0.80993,-0.37632 0.16458,-1.37616 -0.32137,-2.07987 1.27694,0.43567 2.88655,0.50975 2.62271,2.58491 1.0492,1.63359 1.77642,3.34483 2.53744,5.04791"
       id="path4421"
       inkscape:connector-curvature="0"
       sodipodi:nodetypes="ccccc" />
  </g>
</svg>
