<?xml version="1.0" encoding="UTF-8" standalone="no"?>
<svg
   xmlns:dc="http://purl.org/dc/elements/1.1/"
   xmlns:cc="http://creativecommons.org/ns#"
   xmlns:rdf="http://www.w3.org/1999/02/22-rdf-syntax-ns#"
   xmlns:svg="http://www.w3.org/2000/svg"
   xmlns="http://www.w3.org/2000/svg"
   xmlns:sodipodi="http://sodipodi.sourceforge.net/DTD/sodipodi-0.dtd"
   xmlns:inkscape="http://www.inkscape.org/namespaces/inkscape"
   id="Layer_1"
   enable-background="new 0 0 512 512"
   height="512"
   viewBox="0 0 512 512"
   width="512"
   version="1.1"
   sodipodi:docname="she.svg"
   inkscape:version="0.92.4 (5da689c313, 2019-01-14)">
  <metadata
     id="metadata43">
    <rdf:RDF>
      <cc:Work
         rdf:about="">
        <dc:format>image/svg+xml</dc:format>
        <dc:type
           rdf:resource="http://purl.org/dc/dcmitype/StillImage" />
      </cc:Work>
    </rdf:RDF>
  </metadata>
  <defs
     id="defs41" />
  <sodipodi:namedview
     pagecolor="#ffffff"
     bordercolor="#666666"
     borderopacity="1"
     objecttolerance="10"
     gridtolerance="10"
     guidetolerance="10"
     inkscape:pageopacity="0"
     inkscape:pageshadow="2"
     inkscape:window-width="1920"
     inkscape:window-height="1052"
     id="namedview39"
     showgrid="false"
     inkscape:zoom="0.4609375"
     inkscape:cx="192.58118"
     inkscape:cy="292.97585"
     inkscape:window-x="0"
     inkscape:window-y="0"
     inkscape:window-maximized="1"
     inkscape:current-layer="Layer_1" />
  <path
     d="M 407.012,504 H 104.988 v -80.421 c 0,-64.319 52.141,-116.459 116.459,-116.459 h 69.106 c 64.319,0 116.459,52.141 116.459,116.459 z"
     id="path2"
     inkscape:connector-curvature="0"
     style="fill:#ffcf4d" />
  <path
     d="m 104.988,486 h 302.025 v 18 H 104.988 Z"
     id="path4"
     inkscape:connector-curvature="0"
     style="fill:#ffb629" />
  <path
     d="m 256,356.042 c -36.385,0 -36.854,-47.665 -36.859,-48.893 -16.102,0.313 -31.403,3.891 -45.268,10.104 C 219.14,443.322 256,356.042 256,356.042 Z"
     id="path6"
     inkscape:connector-curvature="0"
     style="fill:#ff9517" />
  <path
     d="m 256,356.042 c 36.385,0 36.853,-47.665 36.859,-48.893 16.102,0.313 31.403,3.891 45.268,10.104 C 292.86,443.322 256,356.042 256,356.042 Z"
     id="path8"
     inkscape:connector-curvature="0"
     style="fill:#ff9517" />
  <path
     d="m 219.14,307.12 c 0,0 0,48.923 36.86,48.923 36.86,0 36.86,-48.923 36.86,-48.923 z"
     id="path10"
     inkscape:connector-curvature="0"
     style="fill:#ffc4ad" />
  <path
     d="m 116.438,373.161 c 18.794,-39.072 58.751,-66.042 105.009,-66.042 h 69.106 c 46.257,0 86.215,26.97 105.009,66.042 h 10e-4 C 407.012,151.025 390.62,8 256,8 121.38,8 104.988,151.025 116.437,373.161 Z"
     id="path12"
     inkscape:connector-curvature="0"
     style="fill:#2d4456" />
  <path
     d="m 294.011,289.12 h -76.022 c -42.34,0 -79.868,18.681 -103.193,47.459 0.451,11.943 0.999,24.131 1.641,36.583 h 0.001 C 135.232,334.09 175.189,307.12 221.447,307.12 h 69.106 c 46.257,0 86.215,26.97 105.009,66.042 h 10e-4 c 0.642,-12.451 1.19,-24.639 1.641,-36.583 C 373.879,307.801 336.351,289.12 294.011,289.12 Z"
     id="path14"
     inkscape:connector-curvature="0"
     style="fill:#253847" />
  <path
     d="m 210.199,109.148 c 0,0 -13.201,40.777 -48.72,54.621 v 48.83 c 0,52.202 42.318,94.52 94.521,94.52 52.202,0 94.521,-42.318 94.521,-94.52 v -57.912 c -0.005,10e-4 -99.938,8.289 -140.322,-45.539 z"
     id="path16"
     inkscape:connector-curvature="0"
     style="fill:#ffe0cc" />
  <path
     d="m 256,289.12 c -52.202,0 -94.521,-42.318 -94.521,-94.52 v 18 c 0,52.202 42.318,94.52 94.521,94.52 52.202,0 94.521,-42.318 94.521,-94.52 v -18 c 0,52.201 -42.319,94.52 -94.521,94.52 z"
     id="path18"
     inkscape:connector-curvature="0"
     style="fill:#ffceb3" />
  <g
     id="g32">
    <path
       d="m 403.432,371.982 c 1.348,-26.466 2.208,-49.926 2.624,-71.649 0.079,-4.15 -3.22,-7.577 -7.37,-7.658 -4.126,-0.095 -7.577,3.22 -7.658,7.37 -0.292,15.25 -0.804,31.357 -1.552,48.765 -19.501,-25.608 -48.705,-43.441 -82.082,-47.967 30.372,-17.741 50.824,-50.689 50.824,-88.329 v -58.025 c 0,-4.151 -3.364,-7.515 -7.515,-7.515 -0.203,0 -0.409,0.009 -0.612,0.025 -0.963,0.077 -96.539,7.248 -133.973,-42.649 -3.391,-4.827 -11.503,-3.474 -13.156,2.183 -0.123,0.375 -12.669,37.685 -44.399,50.052 -2.886,1.125 -4.786,3.905 -4.786,7.002 v 48.926 c 0,37.639 20.452,70.588 50.824,88.329 -33.383,4.527 -62.591,22.365 -82.091,47.98 -5.235,-119.884 -2.204,-235.177 41.563,-292.481 2.519,-3.298 1.887,-8.015 -1.412,-10.533 -3.297,-2.521 -8.014,-1.887 -10.533,1.41 -22.013,28.824 -35.799,71.525 -42.145,130.547 -5.233,48.669 -5.684,110.427 -1.417,194.215 -7.306,15.809 -11.391,33.399 -11.391,51.927 v 15.612 c 0,4.151 3.364,7.515 7.515,7.515 4.151,0 7.515,-3.364 7.515,-7.515 v -15.612 c 0,-41.465 23.238,-77.603 57.374,-96.08 16.651,43.439 34.324,64.862 53.918,65.4 0.242,0.007 0.482,0.01 0.723,0.01 10.298,0 20.305,-6.047 28.983,-17.527 1.007,-1.332 1.935,-2.663 2.796,-3.962 0.86,1.299 1.788,2.629 2.796,3.962 8.679,11.481 18.685,17.527 28.983,17.527 0.241,0 0.481,-0.003 0.723,-0.01 19.593,-0.538 37.267,-21.961 53.918,-65.4 34.136,18.477 57.374,54.615 57.374,96.08 v 73.064 h -44.746 v -58.638 c 0,-4.151 -3.364,-7.515 -7.515,-7.515 -4.151,0 -7.515,3.364 -7.515,7.515 v 58.638 H 171.981 v -58.638 c 0,-4.151 -3.364,-7.515 -7.515,-7.515 -4.151,0 -7.515,3.364 -7.515,7.515 v 58.638 h -44.746 v -27.393 c 0,-4.151 -3.364,-7.515 -7.515,-7.515 -4.151,0 -7.515,3.364 -7.515,7.515 v 34.908 c 0,4.151 3.364,7.515 7.515,7.515 h 302.616 c 4.151,0 7.515,-3.364 7.515,-7.515 v -80.578 c 0.002,-18.529 -4.083,-36.118 -11.389,-51.926 z M 256,348.723 c -21.501,0 -27.286,-21.996 -28.843,-33.988 h 57.644 c -0.546,4.017 -1.575,9.186 -3.518,14.345 -4.98,13.217 -13.25,19.643 -25.283,19.643 z M 168.809,212.514 v -43.985 c 23.406,-11.07 36.968,-32.342 43.524,-45.656 38.428,38.604 107.207,40.2 130.857,39.513 v 50.128 c 0,48.077 -39.113,87.191 -87.191,87.191 -48.078,0 -87.19,-39.114 -87.19,-87.191 z m 55.402,165.693 c -0.107,0 -0.212,-0.002 -0.319,-0.005 -16.598,-0.481 -32.559,-35.672 -40.596,-56.61 9.096,-3.397 18.762,-5.611 28.812,-6.46 0.607,5.138 1.879,12.168 4.545,19.245 5.52,14.653 15.134,24.208 27.646,27.787 -4.779,7.502 -12.162,16.043 -20.088,16.043 z m 63.897,-0.004 c -8.036,0.203 -15.556,-8.452 -20.4,-16.04 12.509,-3.58 22.121,-13.135 27.64,-27.785 2.666,-7.077 3.938,-14.108 4.545,-19.245 10.05,0.849 19.716,3.064 28.812,6.46 -8.039,20.938 -23.999,56.128 -40.597,56.61 z"
       id="path22"
       inkscape:connector-curvature="0" />
    <path
       d="m 283.67,245.126 -0.011,-0.005 c 0.479,-0.989 0.755,-2.094 0.755,-3.267 -0.112,-8.394 -11.613,-10.346 -14.554,-2.611 l -0.016,-0.007 c -0.317,0.668 -3.398,6.522 -13.845,6.522 -10.447,0 -13.528,-5.854 -13.845,-6.522 l -0.016,0.007 c -4.01,-9.585 -17.938,-3.725 -13.798,5.878 l -0.011,0.005 c 2.395,5.817 10.919,15.662 27.67,15.662 16.751,0 25.276,-9.845 27.671,-15.662 z"
       id="path28"
       inkscape:connector-curvature="0" />
    <path
       d="M 183.908,36.406 C 202.895,22.021 226.477,15.029 256,15.029 c 95.944,0 135.147,73.905 135.315,255.09 0.004,4.148 3.367,7.508 7.515,7.508 h 0.007 c 4.151,-0.004 7.512,-3.372 7.508,-7.521 C 406.261,179.412 396.742,117.287 376.389,74.595 352.459,24.4 313.079,0 256,0 c -32.464,0 -59.773,8.218 -81.168,24.426 -3.307,2.507 -3.958,7.22 -1.452,10.528 2.507,3.306 7.216,3.959 10.528,1.452 z"
       id="path30"
       inkscape:connector-curvature="0" />
  </g>
  <path
     style="fill:none;stroke:#000000;stroke-width:15;stroke-linecap:round;stroke-linejoin:miter;stroke-miterlimit:4;stroke-dasharray:none;stroke-opacity:1"
     d="m 196.55118,193.73122 c 5.75564,-3.80642 12.0373,-6.52322 22.77966,0"
     id="path882-3"
     inkscape:connector-curvature="0"
     sodipodi:nodetypes="cc" />
  <path
     style="fill:none;stroke:#000000;stroke-width:15;stroke-linecap:round;stroke-linejoin:miter;stroke-miterlimit:4;stroke-dasharray:none;stroke-opacity:1"
     d="m 290.98305,193.76271 c 5.75564,-3.80642 12.0373,-6.52322 22.77966,0"
     id="path882-3-6"
     inkscape:connector-curvature="0"
     sodipodi:nodetypes="cc" />
</svg>
