<svg id="Capa_1" enable-background="new 0 0 512 512" height="512" viewBox="0 0 512 512" width="512" xmlns="http://www.w3.org/2000/svg"><g><g><g><path d="m406.156 321.715h-295.865l15.891-51.589 259.34.032z" fill="#6f6471"/></g><g><g><circle cx="202.344" cy="69.573" fill="#633c3e" r="15.071"/></g><g><g><path d="m236.32 242.347-11.535-64.491c-1.834-10.252-8.991-18.751-18.782-22.302l-27.108-9.832-27.329 9.912c-9.672 3.508-16.783 11.848-18.717 21.953l-12.396 64.759" fill="#b8b6ff"/></g><g><path d="m193.978 151.231-15.423 13.463-15.413-13.463v-20.668h30.836z" fill="#ecbd83"/></g><g><path d="m203.048 94.108v17.511c0 13.741-11.24 25.311-24.971 25.041-13.311-.25-24.021-11.121-24.021-24.491v-18.061c0-.95.05-1.89.17-2.82 1.39-12.2 11.75-21.671 24.331-21.671 6.76 0 8.708 6.984 13.138 11.414 4.431 4.43 11.353 6.307 11.353 13.077z" fill="#f7d4ad"/></g></g><g><path d="m203.048 94.108v2.785c-.122.234-.35.395-.35.395-1.63 1.27-3.46 2.33-5.47 3.14-6.88 2.76-14.34 1.83-20.171-1.85 0 0-8.09-6.55-11.51-8.83-2.9-1.93-6.97 2.22-11.321 1.54 1.39-12.2 11.75-21.671 24.331-21.671 6.76 0 12.89 2.74 17.321 7.17 4.43 4.431 7.17 10.551 7.17 17.321z" fill="#6e4848"/></g></g><g><g><g><path d="m382.567 242.347-11.535-64.491c-1.834-10.252-8.991-18.751-18.782-22.302l-27.108-9.832-27.329 9.912c-9.672 3.508-16.783 11.848-18.717 21.953l-12.396 64.759" fill="#a4ccff"/></g><g><path d="m340.226 155.821-1.128.985c-8.189 7.148-20.399 7.146-28.585-.005l-1.122-.98v-25.258h30.836v25.258z" fill="#ecbd83"/></g><g><path d="m349.294 94.108v17.511c0 13.741-11.24 25.311-24.971 25.041-13.311-.25-24.011-11.121-24.011-24.491v-18.061c0-13.531 10.96-24.491 24.491-24.491 6.76 0 12.89 2.74 17.321 7.17 4.43 4.431 7.17 10.551 7.17 17.321z" fill="#f7d4ad"/></g></g><g><path d="m349.294 94.108v3l-.35.18c-1.62 1.27-3.45 2.33-5.47 3.14-6.88 2.76-14.33 1.83-20.161-1.85 0 0-8.54-4.6-11.97-5.9-2.59-.98-6.66 3.86-11.03 4.99v-3.56c0-13.531 10.96-24.491 24.491-24.491 6.76 0 12.89 2.74 17.321 7.17 4.429 4.431 7.169 10.551 7.169 17.321z" fill="#6e4848"/></g></g><g><g><path d="m393.168 270.129h-277.581c-10.412 0-18.852-8.44-18.852-18.852v-8.959h315.285v8.959c0 10.412-8.44 18.852-18.852 18.852z" fill="#7c5757"/></g><g><path d="m305.425 270.126h-102.094c4.117 12.202 12.479 22.438 23.327 28.962 7.115 4.279 11.612 11.832 11.612 20.134v138.242h30.918v-137.414c0-8.502 4.688-16.205 12.053-20.451 11.265-6.495 19.959-16.951 24.184-29.473z" fill="#dad8db"/></g><g><path d="m118.207 349.526h-98.963c-6.489 0-11.749-5.26-11.749-11.749v-16.062h122.46v16.062c.001 6.489-5.259 11.749-11.748 11.749z" fill="#ffc269"/></g><g><path d="m7.495 321.715v13.935h87.081c7.664 0 13.876 6.213 13.876 13.876h9.754c6.489 0 11.749-5.26 11.749-11.749v-16.062z" fill="#ff8b59"/></g><g><path d="m21.34 270.129v-84.981c0-13.726 5.45-26.891 15.152-36.601 13.958-13.969 37.659-10.596 46.126 7.245l20.038 34.853-4.026 79.484" fill="#b2e59f"/></g><g><path d="m166.075 457.464h-15.948c-3.012 0-5.56-2.227-5.962-5.212l-17.598-130.566h-74.905c-16.747 0-30.323-13.576-30.323-30.323v-21.234h114.67c19.927 0 36.082 16.154 36.082 36.082v145.237c0 3.322-2.693 6.016-6.016 6.016z" fill="#4b3f4e"/></g><g><path d="m61.997 205.02 34.738 37.298h85.386c0-15.514-11.219-28.753-26.523-31.299l-45.589-7.582-27.392-47.645c-10.912-4.589-22.872-4.828-29.477 1.056-9.605 8.558-9.465 31.478 8.857 48.172z" fill="#95d5a4"/></g><g><path d="m82.616 99.892v13.681c0 14.721-11.92 26.641-26.631 26.641-8.91 0-16.791-4.37-21.631-11.08-1.16-1.6-2.14-3.34-2.92-5.19-1.34-3.18-2.09-6.69-2.09-10.37v-13.682c0-14.711 11.93-26.641 26.641-26.641 7.35 0 14.011 2.98 18.831 7.8 2.76 2.76 4.92 6.13 6.25 9.89 1.01 2.791 1.55 5.811 1.55 8.951z" fill="#f7d4ad"/></g><g><path d="m81.066 90.941-.59-.11-24.331 10.5c-1.33.57-2.35 1.71-2.76 3.11l-.99 3.34s-1.91 15.831-15.921 20.721c-.73.25-1.44.46-2.12.63-1.16-1.6-2.14-3.34-2.92-5.19-1.34-3.18-2.09-6.69-2.09-10.37v-13.68c0-14.711 11.93-26.641 26.641-26.641 7.35 0 14.011 2.98 18.831 7.8 2.76 2.76 4.92 6.13 6.25 9.89z" fill="#6e4848"/></g><g><circle cx="482.216" cy="73.881" fill="#633c3e" r="15.071"/></g><g><path d="m393.793 349.526h98.962c6.489 0 11.749-5.26 11.749-11.749v-16.062h-122.46v16.062c0 6.489 5.26 11.749 11.749 11.749z" fill="#ffc269"/></g><g><path d="m382.044 321.715v11.729h92.554c8.871 0 16.062 7.191 16.062 16.062 0 .007-.001.013-.001.02h2.096c6.489 0 11.749-5.26 11.749-11.749v-16.062z" fill="#ff8b59"/></g><g><path d="m490.66 270.129v-84.981c0-13.726-5.45-26.891-15.152-36.601-13.958-13.969-37.659-10.596-46.126 7.245l-20.038 34.853 4.026 79.484" fill="#b8b6ff"/></g><g><path d="m345.925 457.464h15.948c3.012 0 5.56-2.227 5.962-5.212l17.598-130.566h74.904c16.747 0 30.323-13.576 30.323-30.323v-21.234h-114.67c-19.927 0-36.082 16.154-36.082 36.082v145.237c.001 3.322 2.694 6.016 6.017 6.016z" fill="#4b3f4e"/></g><g><path d="m450.003 205.02-34.738 37.298h-85.386c0-15.514 11.219-28.753 26.523-31.299l45.589-7.582 29.265-50.904c2.875-.764 15.791-3.899 23.927 2.904 10.145 8.48 10.903 30.773-5.18 49.583z" fill="#a09eef"/></g><g><path d="m480.331 100.102 2.324 13.171c0 5.13-1.45 9.92-3.96 13.981-4.68 7.59-13.08 12.661-22.671 12.661-14.711 0-26.641-11.93-26.641-26.641v-13.682c0-2.3.29-4.53.84-6.66v-.01c1.21-4.68 3.65-8.86 6.96-12.17 4.83-4.82 11.905-4.417 19.256-4.417 14.71-.001 23.892 9.046 23.892 23.767z" fill="#f7d4ad"/></g><g><path d="m482.654 99.592v13.681c0 5.13-1.45 9.92-3.96 13.981-2.42-.49-5.01-1.41-7.55-2.99-9.44-5.86-17.681-16.481-17.681-16.481l-1-3.34c-.41-1.4-1.42-2.54-2.76-3.11l-19.481-8.4v-.01c1.21-4.68 3.65-8.86 6.96-12.17 4.83-4.82 11.49-7.8 18.841-7.8 14.711-.002 26.631 11.918 26.631 26.639z" fill="#6e4848"/></g></g></g><path d="m504.5 314.247h-14.052c4.834-6.354 7.712-14.273 7.712-22.855l-.001-106.21c0-15.825-6.159-30.706-17.343-41.9-1.157-1.159-2.381-2.223-3.656-3.206 7.908-6.258 12.997-15.93 12.997-26.774v-13.685c0-1.526-.111-3.027-.306-4.501 8.7-3.136 14.938-11.472 14.938-21.24 0-12.446-10.125-22.571-22.571-22.571-9.623 0-17.854 6.056-21.095 14.556-1.666-.251-3.369-.383-5.104-.383-18.823 0-34.138 15.314-34.138 34.138v13.684c0 10.323 4.612 19.583 11.876 25.848-4.59 3.322-8.376 7.772-10.976 13.105l-17.154 29.837-2.784 4.842c-.001.003-.002.005-.004.008l-5.582 9.709-14.804 2.462-4.038-22.586c-2.305-12.843-11.35-23.582-23.606-28.027l-7.086-2.568v-11.721c5.775-6.072 9.073-14.236 9.073-22.586v-17.517c0-17.642-14.353-31.994-31.994-31.994-17.643 0-31.995 14.353-31.995 31.994v18.065c0 8.594 3.473 16.457 9.085 22.239v11.762l-6.641 2.408c-12.087 4.388-21.102 14.962-23.527 27.601l-11.226 58.665h-17.901l-10.427-58.321c-2.307-12.846-11.356-23.585-23.615-28.025l-7.078-2.568v-11.724c5.775-6.072 9.072-14.235 9.072-22.585v-17.517c0-1.161-.066-2.306-.187-3.435 8.499-3.24 14.555-11.472 14.555-21.095 0-12.445-10.125-22.57-22.57-22.57-9.868 0-18.272 6.369-21.332 15.21-.813-.062-1.632-.104-2.461-.104-17.642 0-31.994 14.353-31.994 31.994v18.065c0 8.595 3.473 16.458 9.086 22.24v11.76l-6.641 2.41c-12.087 4.388-21.102 14.962-23.527 27.602l-4.124 21.567-6.612-1.1-5.582-9.709c-.002-.003-.003-.005-.004-.008l-2.784-4.842-17.154-29.837c-2.6-5.333-6.386-9.783-10.976-13.105 7.264-6.265 11.876-15.525 11.876-25.848v-13.684c0-18.824-15.314-34.138-34.138-34.138s-34.138 15.314-34.138 34.138v13.684c0 4.606.904 9.079 2.686 13.29 2.293 5.422 5.874 10.013 10.29 13.502-1.266.978-2.482 2.036-3.632 3.187-11.186 11.196-17.345 26.077-17.345 41.901l-.001 106.21c0 8.582 2.877 16.501 7.712 22.855h-14.052c-4.143 0-7.5 3.358-7.5 7.5v16.061c0 10.615 8.631 19.25 19.24 19.25h9.6l-21.152 98.866c-.866 4.051 1.715 8.037 5.765 8.903.529.113 1.057.167 1.577.167 3.461 0 6.573-2.411 7.326-5.932l21.824-102.003h48.5l21.824 102.004c.754 3.521 3.865 5.932 7.326 5.932.521 0 1.048-.054 1.577-.167 4.05-.867 6.631-4.853 5.765-8.903l-21.153-98.865h10.185c1.878 0 3.708-.286 5.451-.804l13.052 96.845c.915 6.78 6.764 11.894 13.605 11.894h15.55c7.57 0 13.729-6.159 13.729-13.729v-77.037c0-4.142-3.357-7.5-7.5-7.5s-7.5 3.358-7.5 7.5v75.765h-13.167l-17.424-129.28c-.492-3.671-3.766-6.498-7.433-6.498h-74.905c-12.584 0-22.822-10.238-22.822-22.823v-13.734h107.17c15.76 0 28.581 12.822 28.581 28.582v15.4c0 .026-.004.051-.004.077s.004.051.004.077v23.327c0 4.142 3.357 7.5 7.5 7.5s7.5-3.358 7.5-7.5v-15.905h51.179v120.775h-10.578c-4.143 0-7.5 3.358-7.5 7.5s3.357 7.5 7.5 7.5h68.373c4.143 0 7.5-3.358 7.5-7.5s-3.357-7.5-7.5-7.5h-11.878v-120.774h55.723v122.047c0 7.57 6.158 13.729 13.729 13.729h15.55c6.842 0 12.69-5.113 13.605-11.895l13.052-96.844c1.743.518 3.573.804 5.451.804h10.185l-21.153 98.865c-.866 4.051 1.715 8.037 5.765 8.903.529.113 1.057.167 1.577.167 3.461 0 6.573-2.411 7.326-5.932l21.824-102.004h48.5l21.824 102.004c.754 3.521 3.865 5.932 7.326 5.932.521 0 1.048-.054 1.577-.167 4.05-.867 6.631-4.853 5.765-8.903l-21.153-98.865h9.6c10.609 0 19.24-8.636 19.24-19.25v-16.061c0-4.142-3.357-7.5-7.5-7.5zm-22.281-247.941c4.175 0 7.571 3.396 7.571 7.571 0 3.327-2.16 6.153-5.149 7.166-2.501-3.841-5.746-7.154-9.539-9.721 1.051-2.919 3.84-5.016 7.117-5.016zm-26.198 14.173c10.553 0 19.138 8.585 19.138 19.138v13.684c0 10.553-8.585 19.138-19.138 19.138s-19.138-8.585-19.138-19.138v-12.259l14.875 6.418.648 2.18c.969 3.256 3.953 5.363 7.186 5.363.708 0 1.429-.101 2.142-.313 3.971-1.181 6.231-5.357 5.05-9.328l-.991-3.331c-1.051-3.536-3.596-6.403-6.984-7.866l-16.99-7.331c3.504-3.89 8.564-6.355 14.202-6.355zm-139.128 62.678c2.34.604 4.777.956 7.285 1.004.205.004.409.006.613.006 2.707 0 5.366-.353 7.933-1.026v9.12c-4.766 3.186-11.067 3.184-15.831-.001zm-9.085-49.051c0-9.371 7.624-16.994 16.995-16.994 8.994 0 16.36 7.029 16.938 15.88-.344.169-.693.328-1.05.471-4.377 1.753-9.379 1.294-13.379-1.232-3.499-2.21-8.135-1.165-10.345 2.339-2.211 3.503-1.164 8.135 2.339 10.346 4.817 3.041 10.359 4.593 15.926 4.593 2.199 0 4.402-.249 6.565-.738v2.852c0 4.721-1.953 9.344-5.359 12.685-3.279 3.217-7.498 4.944-11.971 4.856-9.186-.177-16.659-7.8-16.659-16.993zm-21.352 84.899c1.435-7.475 6.767-13.73 13.912-16.324l3.887-1.41c.067.063.127.131.197.192l1.127.987c5.482 4.786 12.354 7.179 19.229 7.179 6.871 0 13.746-2.393 19.229-7.178l1.13-.99c.132-.116.252-.242.375-.366l4.155 1.506c7.244 2.627 12.592 8.978 13.954 16.57l4.005 22.402-11.955 1.988-.931-4.26c-.884-4.046-4.875-6.609-8.929-5.726-4.046.884-6.609 4.882-5.726 8.928l1.346 6.159c-9.485 5.649-16.239 15.121-18.366 26.184h-21.029l7.079-32.344c.886-4.046-1.677-8.044-5.723-8.93s-8.045 1.677-8.93 5.723l-7.781 35.551h-10.943zm-115.81-31.182v-4.666c2.339.604 4.776.955 7.283 1.003.205.004.409.006.613.006 2.708 0 5.367-.353 7.935-1.026v4.68l-7.919 6.913zm31.702-85.817c4.174 0 7.57 3.396 7.57 7.57 0 3.133-1.913 5.827-4.633 6.977-2.581-3.917-5.995-7.236-9.993-9.701 1.097-2.83 3.843-4.846 7.056-4.846zm-40.787 32.1c0-9.371 7.624-16.994 16.994-16.994 8.995 0 16.36 7.029 16.939 15.88-.344.169-.693.328-1.051.472-4.378 1.753-9.379 1.293-13.377-1.231-3.502-2.21-8.134-1.165-10.346 2.338-2.211 3.502-1.164 8.135 2.338 10.346 4.818 3.042 10.359 4.594 15.926 4.594 2.199 0 4.402-.25 6.566-.739v2.852c0 4.721-1.953 9.344-5.359 12.685-3.279 3.217-7.505 4.944-11.972 4.856-9.186-.177-16.658-7.8-16.658-16.993zm-21.351 84.899c1.435-7.475 6.767-13.73 13.914-16.324l7.582-2.751 11.917 10.41c1.413 1.234 3.173 1.852 4.934 1.852 1.76 0 3.52-.617 4.932-1.85l12.122-10.581 7.833 2.842c7.249 2.625 12.6 8.977 13.963 16.569l9.954 55.676h-11.019l-7.781-35.551c-.885-4.045-4.875-6.609-8.93-5.723-4.046.886-6.608 4.884-5.723 8.93l7.079 32.344h-12.083c-2.695-14.018-12.819-25.486-26.515-29.851l.545-2.491c.885-4.046-1.679-8.044-5.726-8.929-4.042-.885-8.044 1.679-8.929 5.725l-.618 2.824-11.507-1.914zm-103.368-79.388c0-10.553 8.585-19.138 19.138-19.138 5.635 0 10.692 2.462 14.198 6.35l-17.003 7.337c-3.386 1.462-5.931 4.327-6.984 7.864l-.991 3.334c-1.18 3.971 1.082 8.146 5.053 9.326.713.212 1.433.313 2.14.313 3.233 0 6.218-2.107 7.187-5.365l.647-2.178 14.893-6.426v12.266c0 10.553-8.585 19.138-19.138 19.138-7.711 0-14.633-4.589-17.637-11.692-.996-2.354-1.501-4.858-1.501-7.446v-13.683zm4.957 54.262c4.146-4.152 9.63-6.439 15.443-6.439 8.079 0 15.204 4.442 18.594 11.594.085.179.177.354.275.526l20.041 34.852c0 .001.001.001.001.002l7.354 12.792c1.12 1.948 3.055 3.292 5.271 3.66l17.135 2.85c.007.001.014.004.021.005.023.004.046.006.07.01l28.363 4.717c9.16 1.523 16.36 7.982 19.079 16.4h-73.447l-32.514-34.91c-2.823-3.03-7.568-3.2-10.6-.376s-3.2 7.569-.377 10.6l32.727 35.138v6.008c0 3.827.827 7.462 2.3 10.747l-.031.605h-62.663v-77.477c0-11.822 4.601-22.939 12.958-31.304zm76.405 188.179h-19.394c-.071-.001-.141-.002-.212 0h-60.341c-.067-.001-.133 0-.199 0h-18.818c-2.338 0-4.24-1.907-4.24-4.25v-8.561h105.015l1.51 11.205c-.793.991-2.006 1.606-3.321 1.606zm-2.616-79.4c-6.26 0-11.353-5.092-11.353-11.352v-1.459h300.285v1.459c0 6.26-5.092 11.352-11.352 11.352zm53.28 15h29.34c5.089 11.547 13.671 21.323 24.585 27.886 3.438 2.067 5.922 5.139 7.136 8.673h-50.339v-7.978c.001-10.929-4.052-20.923-10.722-28.581zm76.902 172.334v-130.741c0-10.892-5.7-20.822-15.247-26.562-6.27-3.771-11.521-8.94-15.369-15.031h78.454c-3.998 6.338-9.507 11.663-16.114 15.472-9.75 5.621-15.808 15.947-15.808 26.949v129.914h-15.916zm32.091-135.775c1.36-3.315 3.841-6.198 7.126-8.092 11.392-6.567 20.317-16.552 25.562-28.467h32.584c-6.67 7.658-10.723 17.652-10.723 28.582v7.978h-54.549zm82.715 135.775h-13.167v-128.198c0-.026.004-.051.004-.077s-.004-.051-.004-.077v-15.4c0-15.76 12.821-28.582 28.581-28.582h71.543c4.143 0 7.5-3.358 7.5-7.5s-3.357-7.5-7.5-7.5h-27.037l-.724-14.328c.348-.262.679-.549.98-.872l34.738-37.298c2.823-3.031 2.654-7.777-.377-10.6-3.029-2.823-7.776-2.654-10.6.376l-32.514 34.91h-73.448c2.203-6.82 7.348-12.352 14.092-15.018.05-.018.098-.037.147-.056 1.537-.596 3.155-1.046 4.84-1.326l45.589-7.582c2.217-.369 4.151-1.712 5.271-3.66l7.354-12.792c0-.001 0-.001.001-.002l20.041-34.852c.099-.172.19-.347.275-.526 3.39-7.151 10.515-11.594 18.594-11.594 5.813 0 11.298 2.287 15.445 6.441 8.354 8.364 12.956 19.48 12.956 31.301v77.477h-6.63c-4.143 0-7.5 3.358-7.5 7.5s3.357 7.5 7.5 7.5h6.631v13.734c0 12.584-10.238 22.823-22.822 22.823h-74.905c-3.663 0-6.934 2.782-7.433 6.498zm136.424-112.185c0 2.344-1.902 4.25-4.24 4.25h-18.809c-.071-.001-.141-.002-.212 0h-60.343c-.067-.001-.133 0-.199 0h-19.401c-1.315 0-2.528-.614-3.321-1.606l1.51-11.205h105.015z"/></g></svg>