<?xml version="1.0" encoding="UTF-8" standalone="no"?>
<!-- Generator: Adobe Illustrator 19.0.0, SVG Export Plug-In . SVG Version: 6.00 Build 0)  -->

<svg
   xmlns:dc="http://purl.org/dc/elements/1.1/"
   xmlns:cc="http://creativecommons.org/ns#"
   xmlns:rdf="http://www.w3.org/1999/02/22-rdf-syntax-ns#"
   xmlns:svg="http://www.w3.org/2000/svg"
   xmlns="http://www.w3.org/2000/svg"
   xmlns:sodipodi="http://sodipodi.sourceforge.net/DTD/sodipodi-0.dtd"
   xmlns:inkscape="http://www.inkscape.org/namespaces/inkscape"
   version="1.1"
   id="Layer_1"
   x="0px"
   y="0px"
   viewBox="0 0 504.91 504.91"
   style="enable-background:new 0 0 504.91 504.91;"
   xml:space="preserve"
   width="512"
   height="512"
   sodipodi:docname="presentation.svg"
   inkscape:version="0.92.4 (5da689c313, 2019-01-14)"><metadata
   id="metadata65"><rdf:RDF><cc:Work
       rdf:about=""><dc:format>image/svg+xml</dc:format><dc:type
         rdf:resource="http://purl.org/dc/dcmitype/StillImage" /></cc:Work></rdf:RDF></metadata><defs
   id="defs63">
	
	

		
		
		
		
		
		
		
		
		
		
		
	
		
		
		
		
		
		
		
		
		
		
	</defs><sodipodi:namedview
   pagecolor="#ffffff"
   bordercolor="#666666"
   borderopacity="1"
   objecttolerance="10"
   gridtolerance="10"
   guidetolerance="10"
   inkscape:pageopacity="0"
   inkscape:pageshadow="2"
   inkscape:window-width="1920"
   inkscape:window-height="1052"
   id="namedview61"
   showgrid="false"
   inkscape:zoom="0.921875"
   inkscape:cx="429.91237"
   inkscape:cy="297.89878"
   inkscape:window-x="0"
   inkscape:window-y="0"
   inkscape:window-maximized="1"
   inkscape:current-layer="Layer_1" />
<path
   style="fill:#3e5268"
   d="m 388.68617,201.522 9.812,-15.747 c 2.793,-4.483 4.436,-9.631 4.456,-14.913 0,-0.039 0,-0.079 0,-0.118 0,-6.62 -2.07,-12.77 -5.59,-17.83 6.49,-5.73 10.59,-14.1 10.59,-23.44 0,-13.47 -8.52,-24.95 -20.46,-29.35 0.65,-2.51 1,-5.14 1,-7.85 0,-17.28 -14.01,-31.28 -31.28,-31.28 -2.42,0 -4.77,0.28 -7.04,0.81 -0.13,-17.16 -14.08,-31.03 -31.27,-31.03 -5.21,0 -10.13,1.29 -14.45,3.54 -2.79,-14.41 -15.47,-25.29 -30.7,-25.29 -9.37,0 -17.77,4.12 -23.5,10.64 -5.73,-6.52 -14.13,-10.64 -23.5,-10.64 -15.23,0 -27.91,10.88 -30.7,25.29 -4.32,-2.25 -9.24,-3.54 -14.45,-3.54 -17.19,0 -31.14,13.87 -31.27,31.03 -2.27,-0.53 -4.62,-0.81 -7.04,-0.81 -17.27,0 -31.28,14 -31.28,31.28 0,2.71 0.35,5.34 1,7.85 -11.94,4.4 -20.46,15.88 -20.46,29.35 0,9.34 4.1,17.71 10.59,23.44 -3.52,5.06 -5.59,11.21 -5.59,17.83 0,0.039 0,0.079 0,0.118 0.02,5.282 1.662,10.43 4.456,14.913 l 9.812,15.747"
   id="path4"
   inkscape:connector-curvature="0" /><path
   style="fill:#27394c"
   d="m 250.79517,34.313 c -4.32,-2.25 -9.24,-3.54 -14.45,-3.54 -17.19,0 -31.14,13.87 -31.27,31.03 -2.27,-0.53 -4.62,-0.81 -7.04,-0.81 -17.27,0 -31.28,14 -31.28,31.28 0,2.71 0.35,5.34 1,7.85 -11.94,4.4 -20.46,15.88 -20.46,29.35 0,9.34 4.1,17.71 10.59,23.44 -3.52,5.06 -5.59,11.21 -5.59,17.83 v 0.12 c 0.02,5.28 1.66,10.43 4.45,14.91 l 9.82,15.75 h -54.74 l -9.81,-15.75 c -2.79,-4.48 -4.44,-9.63 -4.46,-14.91 v -0.12 c 0,-6.62 2.07,-12.77 5.59,-17.83 -6.49,-5.73 -10.59,-14.1 -10.59,-23.44 0,-13.47 8.52,-24.95 20.46,-29.35 -0.65,-2.51 -1,-5.14 -1,-7.85 0,-17.28 14.01,-31.28 31.28,-31.28 2.42,0 4.77,0.28 7.04,0.81 0.13,-17.16 14.08,-31.03 31.27,-31.03 5.21,0 10.13,1.29 14.45,3.54 2.79,-14.41 15.47,-25.29 30.7,-25.29 7.99,0 15.28,3 20.8,7.94 -0.41,6.44 0.57,12.75 3.24,17.35 z"
   id="path6"
   inkscape:connector-curvature="0" /><path
   style="fill:#c99061"
   d="m 412.90717,238.693 c 0,20.455 -15.753,37.217 -35.783,38.82 -1.045,0.089 -2.107,0.133 -3.17,0.133 -2.727,0 -5.384,-0.275 -7.952,-0.815 h -234.621 c -2.568,0.54 -5.225,0.815 -7.952,0.815 h -0.027 c -21.509,-0.018 -38.926,-17.444 -38.926,-38.953 0,-20.278 15.496,-36.934 35.296,-38.767 1.204,-0.124 2.426,-0.177 3.657,-0.177 1.638,0 3.241,0.097 4.826,0.292 h 240.873 c 1.585,-0.195 3.188,-0.292 4.826,-0.292 2.311,0 4.578,0.204 6.774,0.593 18.286,3.197 32.179,19.154 32.179,38.351 z"
   id="path8"
   inkscape:connector-curvature="0" /><path
   style="fill:#a86340"
   d="m 380.72817,200.342 v 49.34 c 0,9.581 -1.248,18.905 -3.604,27.831 -1.045,0.089 -2.107,0.133 -3.17,0.133 -2.727,0 -5.384,-0.275 -7.952,-0.815 h -234.621 c -2.568,0.54 -5.225,0.815 -7.952,0.815 h -0.027 c -2.373,-8.97 -3.63,-18.33 -3.63,-27.964 v -49.756 c 1.204,-0.124 2.426,-0.177 3.657,-0.177 1.638,0 3.241,0.097 4.826,0.292 h 240.873 c 1.585,-0.195 3.188,-0.292 4.826,-0.292 2.311,0 4.578,0.204 6.774,0.593 z"
   id="path10"
   inkscape:connector-curvature="0" /><path
   style="fill:#4cbfd4"
   d="m 369.12717,446.13 v 50.394 h -237.747 V 446.13 c 0,-65.651 53.218,-118.878 118.869,-118.878 9.289,0 18.33,1.071 27.008,3.082 21.987,5.109 41.627,16.32 57.053,31.736 21.508,21.517 34.817,51.234 34.817,84.06 z"
   id="path12"
   inkscape:connector-curvature="0" /><path
   style="fill:#96efff"
   d="m 369.12717,446.13 v 50.394 h -183.732 V 446.13 c 0,-56.362 39.227,-103.568 91.861,-115.796 21.987,5.109 41.627,16.32 57.053,31.736 21.509,21.517 34.818,51.234 34.818,84.06 z"
   id="path14"
   inkscape:connector-curvature="0" /><polyline
   style="fill:#3191aa"
   points="231.08,367.785 204.612,421.495 173.23,387.334 173.232,387.334 141.85,421.495     115.382,367.785   "
   id="polyline16"
   transform="translate(77.02017)" /><path
   style="fill:#a86340"
   d="m 369.12517,184.115 v 79.33 c 0,57.93 -41.44,106.18 -96.3,116.72 -7.3,1.41 -14.85,2.15 -22.58,2.15 -65.65,0 -118.86,-53.22 -118.86,-118.87 v -79.32 c 5.71,6.15 13.86,9.99 22.91,9.99 8.7,0 16.57,-3.55 22.24,-9.29 5.58,-5.65 9.03,-13.41 9.03,-21.98 0,-1.79 -0.15,-3.54 -0.44,-5.25 0.13,0.01 0.26,0.01 0.39,0.01 10.69,0 20.12,-5.36 25.77,-13.55 4.28,2.2 9.12,3.45 14.27,3.45 10.04,0 18.98,-4.74 24.7,-12.1 5.72,7.36 14.65,12.1 24.7,12.1 5.14,0 9.99,-1.25 14.27,-3.45 5.64,8.19 15.08,13.55 25.77,13.55 0.13,0 0.26,0 0.39,-0.01 -0.29,1.71 -0.45,3.46 -0.45,5.25 0,17.27 14.01,31.27 31.28,31.27 9.05,0 17.21,-3.85 22.91,-10 z"
   id="path18"
   inkscape:connector-curvature="0" /><path
   style="fill:#c99061"
   d="m 369.12517,184.115 v 79.33 c 0,57.93 -41.44,106.18 -96.3,116.72 -54.85,-10.54 -96.29,-58.79 -96.29,-116.72 v -78.62 c 5.58,-5.65 9.03,-13.41 9.03,-21.98 0,-1.79 -0.15,-3.54 -0.44,-5.25 0.13,0.01 0.26,0.01 0.39,0.01 10.69,0 20.12,-5.36 25.77,-13.55 4.28,2.2 9.12,3.45 14.27,3.45 10.04,0 18.98,-4.74 24.7,-12.1 5.72,7.36 14.65,12.1 24.7,12.1 5.14,0 9.99,-1.25 14.27,-3.45 5.64,8.19 15.08,13.55 25.77,13.55 0.13,0 0.26,0 0.39,-0.01 -0.29,1.71 -0.45,3.46 -0.45,5.25 0,17.27 14.01,31.27 31.28,31.27 9.05,0 17.21,-3.85 22.91,-10 z"
   id="path20"
   inkscape:connector-curvature="0" /><path
   d="m 277.67117,283.059 c -7.324,7.324 -17.062,11.357 -27.419,11.357 -10.358,0 -20.096,-4.033 -27.419,-11.357 -2.928,-2.929 -7.677,-2.929 -10.606,0 -2.929,2.929 -2.929,7.678 0,10.607 10.157,10.157 23.661,15.751 38.026,15.751 14.364,0 27.869,-5.594 38.025,-15.751 2.929,-2.929 2.929,-7.678 0,-10.607 -2.929,-2.929 -7.678,-2.929 -10.607,0 z"
   id="path36"
   inkscape:connector-curvature="0" /><path
   d="m 198.46617,210.694 c -4.142,0 -7.5,3.358 -7.5,7.5 v 29.22 c 0,4.142 3.358,7.5 7.5,7.5 4.142,0 7.5,-3.358 7.5,-7.5 v -29.22 c 0,-4.142 -3.358,-7.5 -7.5,-7.5 z"
   id="path38"
   inkscape:connector-curvature="0" /><path
   d="m 302.04017,210.694 c -4.142,0 -7.5,3.358 -7.5,7.5 v 29.22 c 0,4.142 3.358,7.5 7.5,7.5 4.142,0 7.5,-3.358 7.5,-7.5 v -29.22 c 0,-4.142 -3.358,-7.5 -7.5,-7.5 z"
   id="path40"
   inkscape:connector-curvature="0" /><path
   d="m 283.81317,451.054 c 0,4.142 3.358,7.5 7.5,7.5 h 45.611 c 4.142,0 7.5,-3.358 7.5,-7.5 0,-4.142 -3.358,-7.5 -7.5,-7.5 h -45.611 c -4.142,0 -7.5,3.358 -7.5,7.5 z"
   id="path42"
   inkscape:connector-curvature="0" /><path
   d="m 376.59617,443.281 c -0.72,-32.687 -13.785,-63.313 -36.982,-86.509 -0.671,-0.671 -1.352,-1.336 -2.042,-1.994 19.197,-18.392 32.487,-42.694 37.179,-69.65 14.743,-0.251 27.832,-7.396 36.173,-18.352 8.20349,-10.62112 8.95576,-19.37944 9.481,-28.081 0,-16.477 -8.634,-30.967 -21.609,-39.214 l 6.069,-9.74 c 3.633,-5.831 5.567,-12.35 5.591,-18.88 v -0.118 c 0,-5.843 -1.296,-11.523 -3.785,-16.712 5.639,-6.884 8.785,-15.552 8.785,-24.558 0,-14.033 -7.675,-26.899 -19.617,-33.711 0.104,-1.16 0.157,-2.324 0.157,-3.489 0,-21.548 -17.697,-39.05 -39.273,-38.777 -3.917,-17.264 -19.431,-30.223 -37.816,-30.223 -3.277,0 -6.551,0.423 -9.722,1.244 -1.387,-3.111 -3.184,-5.979 -5.29,-8.577 -4.24702,-5.08664 -9.0313,-9.2522402 -15.037,-11.324 -4.672,-1.983 -9.778,-3.094 -15.103,-3.094 -8.555,0 -16.799,2.831 -23.5,7.936 -6.701,-5.105 -14.945,-7.936 -23.5,-7.936 -15.547,0 -29.315,9.278 -35.428,22.995 -3.171,-0.822 -6.445,-1.245 -9.722,-1.245 -18.386,0 -33.899,12.959 -37.816,30.223 -0.165,-0.002 -0.329,-0.003 -0.494,-0.003 -21.383,0 -38.78,17.397 -38.78,38.78 0,1.165 0.053,2.33 0.157,3.489 -11.942,6.812 -19.617,19.677 -19.617,33.711 0,9.005 3.146,17.674 8.785,24.558 -2.489,5.19 -3.785,10.87 -3.785,16.712 v 0.146 c 0.024,6.502 1.958,13.021 5.591,18.852 l 5.23,8.394 c -14.218,7.951 -23.856,23.147 -23.856,40.559 0,25.614 20.838,46.453 46.453,46.453 0.76,0 1.518,-0.022 2.273,-0.058 4.706,27.156 18.104,51.369 37.22,69.654 -9.622,9.181 -17.686,19.744 -24.023,31.501 -1.965,3.646 -0.603,8.195 3.043,10.161 1.132,0.61 2.351,0.899 3.552,0.899 2.669,0 5.253,-1.428 6.608,-3.943 5.836,-10.827 13.34,-20.501 22.332,-28.844 3.787,2.846 7.741,5.48 11.84,7.894 l 25.822,52.4 c 1.094,2.22 3.212,3.757 5.662,4.109 2.453,0.354 4.916,-0.528 6.589,-2.35 l 18.359,-19.985 v 82.441 h -103.87 v -42.89 c 0,-9.475 1.189,-18.883 3.536,-27.962 1.037,-4.01 -1.375,-8.102 -5.385,-9.138 -4.011,-1.037 -8.102,1.375 -9.138,5.385 -2.663,10.304 -4.013,20.974 -4.013,31.715 v 50.39 c 0,4.142 3.358,7.5 7.5,7.5 h 237.75 c 5.00047,0 6.64781,-3.96901 6.92176,-6.99178 M 108.37617,181.808 c -2.159,-3.465 -3.308,-7.26 -3.321,-10.947 v -0.118 c 0,-4.869 1.468,-9.553 4.247,-13.547 2.174,-3.126 1.662,-7.385 -1.193,-9.905 -5.118,-4.519 -8.054,-11.014 -8.054,-17.818 0,-9.918 6.25,-18.884 15.553,-22.313 3.615,-1.332 5.633,-5.187 4.667,-8.917 -0.505,-1.949 -0.761,-3.958 -0.761,-5.97 0,-13.112 10.667,-23.78 23.78,-23.78 1.796,0 3.591,0.207 5.335,0.614 2.218,0.518 4.554,-0.001 6.344,-1.41 1.791,-1.41 2.843,-3.557 2.861,-5.836 0.099,-13.006 10.762,-23.587 23.77,-23.587 3.806,0 7.604,0.931 10.986,2.692 2.099,1.094 4.592,1.131 6.725,0.103 2.132,-1.029 3.653,-3.004 4.103,-5.329 2.156,-11.134 11.97,-19.216 23.336,-19.216 6.835,0 13.347,2.949 17.866,8.091 1.424,1.62 3.477,2.549 5.634,2.549 2.157,0 4.209,-0.929 5.634,-2.549 4.519,-5.142 11.031,-8.091 17.866,-8.091 11.367,0 21.181,8.081 23.337,19.216 0.45,2.324 1.971,4.3 4.103,5.329 2.132,1.029 4.625,0.991 6.725,-0.103 3.381,-1.761 7.18,-2.692 10.985,-2.692 13.008,0 23.671,10.581 23.77,23.587 0.018,2.279 1.07,4.427 2.861,5.836 1.791,1.409 4.126,1.928 6.344,1.41 1.744,-0.407 3.539,-0.614 5.335,-0.614 13.112,0 23.78,10.668 23.78,23.78 0,2.012 -0.256,4.021 -0.761,5.97 -0.966,3.73 1.052,7.585 4.667,8.917 9.303,3.428 15.553,12.395 15.553,22.313 0,6.804 -2.936,13.299 -8.054,17.818 -2.854,2.52 -3.367,6.779 -1.193,9.905 2.778,3.993 4.247,8.678 4.247,13.547 v 0.09 c -0.014,3.715 -1.162,7.51 -3.321,10.975 l -7.314,11.739 c -2.652,-0.638 -5.389,-1.054 -8.194,-1.214 v -8.218 c 0,-3.085 -1.89,-5.856 -4.762,-6.982 -2.871,-1.126 -6.141,-0.379 -8.239,1.884 -4.475,4.829 -10.82,7.598 -17.409,7.598 -13.112,0 -23.78,-10.663 -23.78,-23.77 0,-1.303 0.116,-2.648 0.345,-3.996 0.386,-2.277 -0.298,-4.604 -1.854,-6.31 -1.552,-1.701 -3.8,-2.594 -6.095,-2.424 0.077,-0.006 0.149,-0.01 0.165,-0.01 -7.825,0 -15.15,-3.852 -19.593,-10.304 -2.14,-3.106 -6.252,-4.141 -9.605,-2.417 -3.382,1.739 -7.03,2.62 -10.841,2.62 -7.389,0 -14.233,-3.354 -18.778,-9.202 -1.421,-1.828 -3.606,-2.898 -5.922,-2.898 -2.316,0 -4.501,1.07 -5.922,2.898 -4.545,5.848 -11.389,9.202 -18.778,9.202 -3.811,0 -7.459,-0.882 -10.841,-2.62 -3.352,-1.723 -7.463,-0.691 -9.602,2.412 -4.442,6.439 -11.743,10.29 -19.604,10.309 -2.244,-0.114 -4.41,0.776 -5.922,2.434 -1.557,1.706 -2.242,4.034 -1.855,6.311 0.222,1.308 0.334,2.652 0.334,3.996 0,13.107 -10.663,23.77 -23.77,23.77 -6.683,0 -12.867,-2.697 -17.414,-7.593 -2.099,-2.26 -5.366,-3.005 -8.237,-1.878 -2.871,1.127 -4.759,3.897 -4.759,6.981 v 8.137 c -0.138,-0.001 -0.274,-0.012 -0.412,-0.012 -2.777,0 -5.493,0.259 -8.137,0.728 z m 15.097,88.338 c -17.343,0 -31.453,-14.11 -31.453,-31.453 0,-17.338 14.109,-31.444 31.453,-31.444 0.14,0 0.273,0.01 0.412,0.012 v 15.428 c -11.039,0.586 -17.994,7.177 -21.042,14.181 -1.653,3.798 0.085,8.217 3.884,9.87 0.975,0.424 1.99,0.625 2.989,0.625 2.895,0 5.652,-1.685 6.881,-4.509 1.499,-3.444 4.382,-4.752 7.289,-5.092 v 25.68 c 0,2.243 0.061,4.472 0.177,6.687 -0.198,0.004 -0.393,0.015 -0.59,0.015 z m 97.283,138.21 -12.713,-25.798 c 9.611,3.416 19.753,5.699 30.266,6.689 z m 108.251,-40.978 c 21.037,21.038 32.623,49.007 32.623,78.757 v 11.979 l -0.2987,30.911 h -103.5803 v -82.438 l 18.356,19.983 c 1.431,1.558 3.44,2.426 5.523,2.426 0.354,0 0.71,-0.025 1.066,-0.076 2.449,-0.352 4.568,-1.889 5.662,-4.109 l 25.776,-52.306 c 4.136,-2.427 8.116,-5.078 11.923,-7.94 1.001,0.926 1.995,1.858 2.95,2.813 z m -66.811,21.874 c 4.053,-0.382 8.078,-0.956 12.044,-1.722 6.26,-1.203 12.335,-2.864 18.201,-4.937 l -12.695,25.763 z m 9.206,-16.451 c -6.918,1.336 -14.037,2.014 -21.158,2.014 -61.404,0 -111.36,-49.96 -111.36,-111.37 v -65.036 c 4.823,2.09 10.068,3.206 15.41,3.206 20.868,0 37.938,-16.572 38.741,-37.247 7.816,-1.547 14.991,-5.476 20.519,-11.259 3.851,1.26 7.867,1.896 12,1.896 9.169,0 17.823,-3.164 24.7,-8.874 6.877,5.71 15.531,8.874 24.7,8.874 4.065,0 8.126,-0.651 11.988,-1.905 5.524,5.786 12.699,9.719 20.521,11.267 0.803,20.675 17.877,37.248 38.75,37.248 5.343,0 10.589,-1.117 15.41,-3.207 v 65.037 c 10e-4,53.321 -37.939,99.312 -90.221,109.356 z m 105.045,-102.761 c 0.114,-2.187 0.178,-4.384 0.178,-6.595 v -25.742 c 3.036,0.184 6.496,1.315 8.165,5.153 1.228,2.825 3.986,4.511 6.882,4.511 0.998,0 2.013,-0.2 2.986,-0.624 3.799,-1.651 5.54,-6.07 3.888,-9.868 -4.616,-10.616 -13.948,-13.882 -21.92,-14.162 v -15.341 c 16.096,1.362 28.78,14.885 28.78,31.322 -0.002,16.503 -12.78,30.068 -28.959,31.346 z"
   id="path44"
   inkscape:connector-curvature="0"
   sodipodi:nodetypes="cccccccccscscscscccscscscsscscscccssccccscccccccccscccsssscccsccsccsscccscccscscscscscscssccsccsccccsccssccccccscscscccccsscsscsccsssccccsccscscccccscccccscscccccccccsscsccscsccsccccsccscccccc" />















</svg>